<?xml version="1.0" encoding="UTF-8"?>
<svg version="1.1" xmlns="http://www.w3.org/2000/svg" width="1000" height="1000">
<path d="M0 0 C55.44 0 110.88 0 168 0 C168 0.66 168 1.32 168 2 C169.98 2 171.96 2 174 2 C174 2.66 174 3.32 174 4 C175.32 4 176.64 4 178 4 C178 4.66 178 5.32 178 6 C178.66 6 179.32 6 180 6 C180 6.66 180 7.32 180 8 C181.32 8 182.64 8 184 8 C184 8.66 184 9.32 184 10 C184.66 10 185.32 10 186 10 C186 10.66 186 11.32 186 12 C186.66 12 187.32 12 188 12 C188 12.66 188 13.32 188 14 C188.66 14 189.32 14 190 14 C190 14.66 190 15.32 190 16 C190.66 16 191.32 16 192 16 C192 16.66 192 17.32 192 18 C192.66 18 193.32 18 194 18 C194 18.66 194 19.32 194 20 C194.66 20 195.32 20 196 20 C196 20.66 196 21.32 196 22 C196.66 22 197.32 22 198 22 C198 22.66 198 23.32 198 24 C198.66 24 199.32 24 200 24 C200 24.66 200 25.32 200 26 C200.66 26 201.32 26 202 26 C202 26.66 202 27.32 202 28 C202.66 28 203.32 28 204 28 C204 28.66 204 29.32 204 30 C204.66 30 205.32 30 206 30 C206 30.66 206 31.32 206 32 C206.66 32 207.32 32 208 32 C208 32.66 208 33.32 208 34 C208.66 34 209.32 34 210 34 C210 34.66 210 35.32 210 36 C210.66 36 211.32 36 212 36 C212 36.66 212 37.32 212 38 C212.66 38 213.32 38 214 38 C214 38.66 214 39.32 214 40 C215.32 40 216.64 40 218 40 C218 40.66 218 41.32 218 42 C218.66 42 219.32 42 220 42 C220 42.66 220 43.32 220 44 C221.32 44 222.64 44 224 44 C224 44.66 224 45.32 224 46 C225.32 46 226.64 46 228 46 C228 46.66 228 47.32 228 48 C229.32 48 230.64 48 232 48 C232 48.66 232 49.32 232 50 C234.64 50 237.28 50 240 50 C240 50.66 240 51.32 240 52 C384.54 52 529.08 52 678 52 C678 52.66 678 53.32 678 54 C680.64 54 683.28 54 686 54 C686 54.66 686 55.32 686 56 C687.32 56 688.64 56 690 56 C690 56.66 690 57.32 690 58 C690.66 58 691.32 58 692 58 C692 58.66 692 59.32 692 60 C693.32 60 694.64 60 696 60 C696 60.66 696 61.32 696 62 C696.66 62 697.32 62 698 62 C698 62.66 698 63.32 698 64 C698.66 64 699.32 64 700 64 C700 64.66 700 65.32 700 66 C700.66 66 701.32 66 702 66 C702 66.66 702 67.32 702 68 C702.66 68 703.32 68 704 68 C704 68.66 704 69.32 704 70 C704.66 70 705.32 70 706 70 C706 70.66 706 71.32 706 72 C706.66 72 707.32 72 708 72 C708 73.32 708 74.64 708 76 C708.66 76 709.32 76 710 76 C710 77.32 710 78.64 710 80 C710.66 80 711.32 80 712 80 C712 81.32 712 82.64 712 84 C712.66 84 713.32 84 714 84 C714 87.3 714 90.6 714 94 C714.66 94 715.32 94 716 94 C716 241.18 716 388.36 716 540 C715.34 540 714.68 540 714 540 C714 542.64 714 545.28 714 548 C713.34 548 712.68 548 712 548 C712 549.98 712 551.96 712 554 C711.34 554 710.68 554 710 554 C710 555.32 710 556.64 710 558 C709.34 558 708.68 558 708 558 C708 558.66 708 559.32 708 560 C707.34 560 706.68 560 706 560 C706 561.32 706 562.64 706 564 C705.34 564 704.68 564 704 564 C704 564.66 704 565.32 704 566 C703.34 566 702.68 566 702 566 C702 566.66 702 567.32 702 568 C701.34 568 700.68 568 700 568 C700 568.66 700 569.32 700 570 C699.34 570 698.68 570 698 570 C698 570.66 698 571.32 698 572 C696.68 572 695.36 572 694 572 C694 572.66 694 573.32 694 574 C693.34 574 692.68 574 692 574 C692 574.66 692 575.32 692 576 C690.68 576 689.36 576 688 576 C688 576.66 688 577.32 688 578 C686.02 578 684.04 578 682 578 C682 578.66 682 579.32 682 580 C679.36 580 676.72 580 674 580 C674 580.66 674 581.32 674 582 C452.9 582 231.8 582 4 582 C4 581.34 4 580.68 4 580 C1.36 580 -1.28 580 -4 580 C-4 579.34 -4 578.68 -4 578 C-5.98 578 -7.96 578 -10 578 C-10 577.34 -10 576.68 -10 576 C-11.32 576 -12.64 576 -14 576 C-14 575.34 -14 574.68 -14 574 C-14.66 574 -15.32 574 -16 574 C-16 573.34 -16 572.68 -16 572 C-17.32 572 -18.64 572 -20 572 C-20 571.34 -20 570.68 -20 570 C-20.66 570 -21.32 570 -22 570 C-22 569.34 -22 568.68 -22 568 C-22.66 568 -23.32 568 -24 568 C-24 567.34 -24 566.68 -24 566 C-24.66 566 -25.32 566 -26 566 C-26 565.34 -26 564.68 -26 564 C-26.66 564 -27.32 564 -28 564 C-28 562.68 -28 561.36 -28 560 C-28.66 560 -29.32 560 -30 560 C-30 559.34 -30 558.68 -30 558 C-30.66 558 -31.32 558 -32 558 C-32 556.68 -32 555.36 -32 554 C-32.66 554 -33.32 554 -34 554 C-34 552.02 -34 550.04 -34 548 C-34.66 548 -35.32 548 -36 548 C-36 545.36 -36 542.72 -36 540 C-36.66 540 -37.32 540 -38 540 C-38 405.36 -38 270.72 -38 132 C-37.34 132 -36.68 132 -36 132 C-36 99.66 -36 67.32 -36 34 C-35.34 34 -34.68 34 -34 34 C-34 32.02 -34 30.04 -34 28 C-33.34 28 -32.68 28 -32 28 C-32 26.68 -32 25.36 -32 24 C-31.34 24 -30.68 24 -30 24 C-30 22.68 -30 21.36 -30 20 C-29.34 20 -28.68 20 -28 20 C-28 19.34 -28 18.68 -28 18 C-27.34 18 -26.68 18 -26 18 C-26 17.34 -26 16.68 -26 16 C-25.34 16 -24.68 16 -24 16 C-24 15.34 -24 14.68 -24 14 C-23.34 14 -22.68 14 -22 14 C-22 13.34 -22 12.68 -22 12 C-21.34 12 -20.68 12 -20 12 C-20 11.34 -20 10.68 -20 10 C-19.34 10 -18.68 10 -18 10 C-18 9.34 -18 8.68 -18 8 C-16.68 8 -15.36 8 -14 8 C-14 7.34 -14 6.68 -14 6 C-12.68 6 -11.36 6 -10 6 C-10 5.34 -10 4.68 -10 4 C-8.68 4 -7.36 4 -6 4 C-6 3.34 -6 2.68 -6 2 C-4.02 2 -2.04 2 0 2 C0 1.34 0 0.68 0 0 Z " fill="#2898F8" transform="translate(161,209)"/>
<path d="M0 0 C1.29249161 -0.00571014 2.58498322 -0.01142029 3.91664124 -0.01730347 C5.35751333 -0.01854893 6.79838554 -0.019674 8.23925781 -0.02069092 C9.75040305 -0.02531826 11.26154712 -0.03034281 12.77268982 -0.03573608 C16.88674754 -0.04887633 21.00078892 -0.05530903 25.11486435 -0.05974674 C27.68689952 -0.06267686 30.25893021 -0.06678171 32.83096313 -0.07125092 C40.88273123 -0.08493454 48.93448912 -0.09459508 56.98626804 -0.09845281 C66.27121546 -0.10292587 75.55601509 -0.1204351 84.84091759 -0.1494534 C92.02152493 -0.17111281 99.20209084 -0.18115947 106.38273048 -0.18249393 C110.66882631 -0.18353957 114.95478339 -0.189395 119.24084473 -0.20731354 C123.27919281 -0.22386637 127.31729898 -0.22591498 131.35566902 -0.21717453 C132.83180454 -0.21640781 134.30795343 -0.22069839 135.78405571 -0.23063278 C152.97831223 -0.3394907 165.44151369 4.59174223 177.76626587 16.60357666 C180.38591459 19.24528071 182.95412875 21.9323138 185.50488281 24.64044189 C198.12941564 37.99726547 211.86905516 50.7677754 231.24228578 51.70172753 C235.21187641 51.79122556 239.17633925 51.77069272 243.14645386 51.73257446 C244.95379894 51.73387542 246.76114353 51.73739749 248.56848061 51.74292815 C253.5000633 51.75179834 258.43108844 51.72985175 263.36258626 51.70269966 C268.69465904 51.67893131 274.02671155 51.68438015 279.35882568 51.68647766 C288.58907982 51.68645089 297.81916612 51.6689966 307.04937363 51.64033127 C320.41194588 51.59947406 333.77437333 51.59298255 347.13699986 51.59608097 C368.84249578 51.60083646 390.54794039 51.58848116 412.25341797 51.56036377 C413.55119325 51.5586907 414.84896853 51.55701764 416.18607034 51.55529387 C430.66392971 51.53629444 445.1417805 51.5136874 459.61962891 51.4876709 C464.86995431 51.47830583 470.12027982 51.46900396 475.37060547 51.45977783 C476.66618495 51.45749339 477.96176444 51.45520894 479.2966039 51.45285527 C500.92105862 51.41549261 522.54543371 51.40534409 544.16991723 51.41614115 C557.49427613 51.42160662 570.81819809 51.40354755 584.14247133 51.35488953 C593.27567094 51.32322404 602.40866963 51.31668259 611.54191409 51.32966803 C616.8058907 51.33629958 622.06920609 51.33158251 627.33308029 51.29591942 C632.16085317 51.26341231 636.98752032 51.2637047 641.81532599 51.28901823 C643.55274986 51.29248382 645.29024865 51.2843147 647.0275415 51.2626987 C661.01102794 51.09902307 674.05154187 54.11292821 685.14160156 63.28497314 C696.80301651 75.30053085 702.33899841 87.40474912 702.13769531 103.98809814 C702.13345047 105.33405312 702.13345047 105.33405312 702.12911987 106.7071991 C702.1180326 109.53925603 702.09295029 112.3709825 702.06738281 115.20294189 C702.05733818 117.13718208 702.04821494 119.07142728 702.04003906 121.00567627 C702.01813095 125.7173898 701.98368182 130.42886006 701.94238281 135.14044189 C701.61238281 134.15044189 701.28238281 133.16044189 700.94238281 132.14044189 C700.28238281 132.14044189 699.62238281 132.14044189 698.94238281 132.14044189 C698.48863281 131.35669189 698.03488281 130.57294189 697.56738281 129.76544189 C695.86587168 127.01684699 694.89719197 126.26123157 691.94238281 125.14044189 C691.94238281 124.48044189 691.94238281 123.82044189 691.94238281 123.14044189 C681.54738281 122.15044189 681.54738281 122.15044189 670.94238281 121.14044189 C670.81863281 118.41794189 670.81863281 118.41794189 670.69238281 115.64044189 C670.09653107 108.6226325 668.59890361 103.66413665 663.44238281 98.76544189 C659.55416562 96.23810072 656.9213487 94.89077851 652.22926688 94.88744223 C650.80192492 94.879163 650.80192492 94.879163 649.34574777 94.87071651 C647.77904455 94.87688247 647.77904455 94.87688247 646.18069077 94.88317299 C645.0658339 94.87966691 643.95097704 94.87616084 642.80233663 94.87254852 C639.0338455 94.86317986 635.26550706 94.86817193 631.49700928 94.87301636 C628.78101099 94.87038785 626.06502075 94.8647627 623.34902692 94.85928571 C617.42695322 94.8489637 611.50491223 94.84614573 605.58283043 94.84819794 C596.77644312 94.85124224 587.97009212 94.84293662 579.16371186 94.83244869 C562.5215251 94.81308315 545.87935062 94.8074795 529.23715392 94.80633457 C516.38691364 94.80541628 503.53667821 94.80130377 490.68643951 94.79493332 C486.9905177 94.79313829 483.29459588 94.79135866 479.59867406 94.78958356 C478.67991282 94.78914147 477.76115157 94.78869937 476.81454908 94.78824388 C450.96288766 94.7759313 425.11122793 94.76804317 399.25956345 94.76893044 C398.28442435 94.76896159 397.30928525 94.76899275 396.30459648 94.76902485 C391.36193751 94.76919107 386.41927854 94.76938916 381.47661957 94.76959427 C380.00411712 94.7696541 380.00411712 94.7696541 378.50186714 94.76971515 C376.5166933 94.76979602 374.53151946 94.76987962 372.54634563 94.76996593 C341.65799415 94.77119153 310.76968657 94.7561783 279.88134766 94.7288208 C245.19593594 94.69811309 210.51055306 94.68088753 175.82512689 94.68274724 C172.12794765 94.68289651 168.43076841 94.68299392 164.73358917 94.68305588 C163.82321839 94.68307919 162.91284761 94.6831025 161.97488984 94.68312651 C147.31134502 94.68318811 132.64783826 94.67040494 117.98430477 94.65319135 C103.25166891 94.63625413 88.51908883 94.634246 73.78644863 94.64740999 C65.0297716 94.65481206 56.2732638 94.65110383 47.51660462 94.63152531 C41.66957915 94.61955496 35.82267668 94.62208343 29.97565694 94.63646631 C26.64256664 94.64425458 23.3100732 94.64351266 19.97696277 94.6295516 C16.38681761 94.61550587 12.79755392 94.62595887 9.20743942 94.64266396 C8.17233528 94.6327276 7.13723113 94.62279124 6.07076019 94.61255378 C-0.14333546 94.67395717 -4.87939733 95.56332815 -10.05761719 99.14044189 C-14.79590468 104.00342116 -16.24240417 108.77637786 -16.68261719 115.45294189 C-16.75738281 116.52157471 -16.83214844 117.59020752 -16.90917969 118.69122314 C-16.95816406 119.49946533 -17.00714844 120.30770752 -17.05761719 121.14044189 C-18.13140625 121.18942627 -19.20519531 121.23841064 -20.31152344 121.28887939 C-21.74774361 121.36397587 -23.18394038 121.43952065 -24.62011719 121.51544189 C-25.32458984 121.54637939 -26.0290625 121.57731689 -26.75488281 121.60919189 C-31.4705746 121.86996748 -35.56147214 122.68702313 -40.05761719 124.14044189 C-40.05761719 124.80044189 -40.05761719 125.46044189 -40.05761719 126.14044189 C-44.37579901 130.7995328 -44.37579901 130.7995328 -47.05761719 132.14044189 C-47.12720232 120.9179857 -47.18047177 109.69558104 -47.2130537 98.47295284 C-47.22869332 93.26153365 -47.24990059 88.05026232 -47.28393555 82.83892822 C-47.31658958 77.80740981 -47.33448302 72.77603342 -47.34224892 67.74441719 C-47.34778156 65.82712125 -47.35858548 63.90983287 -47.37480736 61.99259758 C-47.39666194 59.30204492 -47.39958076 56.61207524 -47.39819336 53.92144775 C-47.40897919 53.13310043 -47.41976501 52.34475311 -47.43087769 51.53251648 C-47.40205504 46.34908551 -46.38325295 42.78189819 -44.05761719 38.14044189 C-43.39761719 38.14044189 -42.73761719 38.14044189 -42.05761719 38.14044189 C-41.91324219 37.37731689 -41.76886719 36.61419189 -41.62011719 35.82794189 C-41.05761719 33.14044189 -41.05761719 33.14044189 -40.05761719 30.14044189 C-39.70218292 27.81037279 -39.36624188 25.47717174 -39.05761719 23.14044189 C-38.72761719 23.80044189 -38.39761719 24.46044189 -38.05761719 25.14044189 C-36.73761719 25.14044189 -35.41761719 25.14044189 -34.05761719 25.14044189 C-34.05761719 26.13044189 -34.05761719 27.12044189 -34.05761719 28.14044189 C-33.39761719 28.14044189 -32.73761719 28.14044189 -32.05761719 28.14044189 C-32.05761719 26.82044189 -32.05761719 25.50044189 -32.05761719 24.14044189 C-32.71761719 24.14044189 -33.37761719 24.14044189 -34.05761719 24.14044189 C-33.19302292 20.8982134 -32.54039774 18.63931513 -30.18261719 16.20294189 C-28.05761719 15.14044189 -28.05761719 15.14044189 -25.80761719 15.45294189 C-25.23011719 15.67981689 -24.65261719 15.90669189 -24.05761719 16.14044189 C-24.09886719 15.39794189 -24.14011719 14.65544189 -24.18261719 13.89044189 C-24.05363585 11.05285237 -23.48710497 9.55270252 -22.05761719 7.14044189 C-20.40761719 7.14044189 -18.75761719 7.14044189 -17.05761719 7.14044189 C-16.72761719 7.80044189 -16.39761719 8.46044189 -16.05761719 9.14044189 C-15.51621094 8.63899658 -14.97480469 8.13755127 -14.41699219 7.62091064 C-11.38837011 5.72050043 -9.80923029 5.99439732 -6.30761719 6.45294189 C-5.32277344 6.57282471 -4.33792969 6.69270752 -3.32324219 6.81622314 C-2.57558594 6.92321533 -1.82792969 7.03020752 -1.05761719 7.14044189 C-1.05761719 6.48044189 -1.05761719 5.82044189 -1.05761719 5.14044189 C-2.37761719 5.14044189 -3.69761719 5.14044189 -5.05761719 5.14044189 C-5.05761719 4.48044189 -5.05761719 3.82044189 -5.05761719 3.14044189 C-6.04761719 3.14044189 -7.03761719 3.14044189 -8.05761719 3.14044189 C-8.05761719 2.48044189 -8.05761719 1.82044189 -8.05761719 1.14044189 C-5.30175863 -0.23748738 -3.08561317 0.00813573 0 0 Z " fill="#0A9DF0" transform="translate(173.0576171875,209.85955810546875)"/>
<path d="M0 0 C1.4307129 -0.00866357 1.4307129 -0.00866357 2.89032909 -0.01750216 C3.93217089 -0.01367737 4.97401269 -0.00985258 6.04742545 -0.00591189 C7.72144151 -0.01162039 7.72144151 -0.01162039 9.42927608 -0.01744422 C13.19566823 -0.02780929 16.96191106 -0.02384474 20.72831362 -0.02000433 C23.44517545 -0.02335149 26.1620285 -0.02968827 28.87888515 -0.03587306 C34.79974442 -0.04773088 40.72057285 -0.0520854 46.64144343 -0.05155188 C55.44601341 -0.05075939 64.25054441 -0.0613007 73.05510398 -0.07396745 C90.61063423 -0.09872143 108.16615504 -0.10749163 125.72170034 -0.11250394 C126.63110585 -0.11276511 127.54051137 -0.11302629 128.47747463 -0.11329538 C129.38867767 -0.11355565 130.29988071 -0.11381592 131.23869596 -0.11408409 C141.33030082 -0.11716474 151.42190306 -0.12366886 161.51350611 -0.13029677 C191.98488155 -0.1499455 222.45625415 -0.16634962 252.92763633 -0.1691733 C253.90250941 -0.16926736 254.87738249 -0.16936142 255.88179718 -0.16945833 C259.83264683 -0.16983682 263.78349648 -0.17020082 267.73434612 -0.17056131 C270.70809925 -0.17083303 273.68185237 -0.17110971 276.65560549 -0.17138678 C277.63824633 -0.1714748 278.62088716 -0.17156282 279.63330498 -0.17165351 C310.51511559 -0.17455958 341.39686363 -0.19666038 372.27865237 -0.23291022 C406.95931133 -0.27361805 441.63992767 -0.29733173 476.32061183 -0.29763281 C480.01721381 -0.29772964 483.71381577 -0.29789636 487.41041774 -0.29811293 C488.32064202 -0.29815704 489.2308663 -0.29820116 490.16867313 -0.29824661 C504.82938461 -0.29936741 519.49003351 -0.31678983 534.15072482 -0.33993225 C548.87988539 -0.36275179 563.60896121 -0.36701487 578.33813296 -0.35238295 C587.09263055 -0.34421925 595.84686159 -0.34996556 604.60132697 -0.3755638 C610.44686135 -0.39127964 616.2922059 -0.38887503 622.13773562 -0.37165707 C625.47005421 -0.36235652 628.8014379 -0.36372444 632.13378439 -0.38162314 C635.72313586 -0.39966495 639.31111358 -0.38707779 642.90042228 -0.36667544 C643.93524057 -0.37923881 644.97005887 -0.39180218 646.0362353 -0.40474626 C652.66777046 -0.32369789 657.0209727 0.98753637 662.16268557 5.25415033 C668.76325604 12.20211925 668.16268557 17.28374496 668.16268557 27.25415033 C441.12268557 27.25415033 214.08268557 27.25415033 -19.83731443 27.25415033 C-19.83731443 11.53908184 -19.83731443 11.53908184 -14.41153318 5.72680658 C-10.04815827 1.83697624 -5.80618504 0.00571395 0 0 Z " fill="#F8FDFC" transform="translate(175.83731442689896,303.74584966897964)"/>
<path d="M0 0 C0.33 0 0.66 0 1 0 C1.33 1.65 1.66 3.3 2 5 C2.76179117 4.83759547 3.52358234 4.67519095 4.30845809 4.50786507 C9.24333142 3.82894828 14.08908659 3.86301245 19.06467056 3.87415886 C20.18798942 3.87270542 21.31130827 3.87125198 22.46866709 3.86975449 C26.25388478 3.86608882 30.03906235 3.86958359 33.82427979 3.87301636 C36.55707462 3.87241912 39.28986783 3.87031809 42.02266192 3.86828911 C47.97529366 3.86467445 53.92791632 3.86478883 59.88054848 3.86733627 C68.73244604 3.87111419 77.58433593 3.86918736 86.43623344 3.86612797 C102.24560184 3.8608575 118.0549662 3.86132056 133.86433498 3.86420688 C147.70174001 3.8667208 161.53914356 3.8673799 175.37654877 3.86618423 C176.75247511 3.86606966 176.75247511 3.86606966 178.15619795 3.86595276 C181.87964373 3.86564143 185.60308951 3.86532303 189.32653529 3.864993 C224.27157437 3.8619325 259.21661087 3.86470965 294.16164955 3.8700899 C325.21144613 3.87483408 356.26123861 3.87441238 387.31103516 3.86962891 C422.18545334 3.8642742 457.05986925 3.86215113 491.93428779 3.86524117 C495.65225458 3.86556189 499.37022138 3.86587473 503.08818817 3.86618423 C504.00366371 3.86626331 504.91913924 3.86634239 505.86235646 3.86642386 C519.68863632 3.86756146 533.51491453 3.86623079 547.34119415 3.86370468 C563.06501018 3.86084623 578.78882154 3.86155846 594.51263699 3.86698543 C603.31328052 3.8699227 612.11391393 3.87011197 620.9145572 3.86633925 C626.79337083 3.86409702 632.67217635 3.86549218 638.55098878 3.86984402 C641.9004014 3.87222251 645.24977739 3.87248664 648.59919193 3.86943804 C652.21013562 3.86640305 655.82102408 3.86951079 659.43196487 3.87415886 C660.46766068 3.87181769 661.50335649 3.86947653 662.57043701 3.86706442 C668.10635622 3.88133334 673.52254822 4.1556667 679.02387623 4.7856741 C681.00010454 5.0359418 681.00010454 5.0359418 683 5 C683.99 5 684.98 5 686 5 C686.33 3.35 686.66 1.7 687 0 C687.33 0 687.66 0 688 0 C688 3.96 688 7.92 688 12 C460.96 12 233.92 12 0 12 C0 8.04 0 4.08 0 0 Z " fill="#DBEEFC" transform="translate(156,319)"/>
<path d="M0 0 C0.33 0 0.66 0 1 0 C1.67041277 15.39466368 -1.42193446 28.07231636 -11.1875 40.25 C-18.25708748 47.8323268 -27.26066396 51.94000591 -37 55 C-38.485 55.495 -38.485 55.495 -40 56 C-41.54520001 56.09200227 -43.09408711 56.12742366 -44.64202303 56.12880117 C-45.6032129 56.13207336 -46.56440276 56.13534555 -47.5547196 56.13871691 C-48.61511114 56.13723328 -49.67550268 56.13574966 -50.76802731 56.13422108 C-51.8957273 56.13657331 -53.0234273 56.13892554 -54.18530002 56.14134905 C-58.00350193 56.14806117 -61.82166999 56.14758016 -65.63987732 56.14717102 C-68.38928233 56.14991914 -71.13868461 56.15415562 -73.88808781 56.1583125 C-80.67734724 56.16765116 -87.46660015 56.17156268 -94.25586521 56.17383147 C-102.38479381 56.17679029 -110.51371374 56.18548587 -118.6426378 56.19424575 C-138.29391757 56.21510532 -157.94519886 56.22556269 -177.59648712 56.23437535 C-186.8913446 56.23858009 -196.18620143 56.24380234 -205.48105837 56.24905988 C-237.29197147 56.26695222 -269.10288476 56.28194831 -300.91380215 56.28938007 C-302.91151953 56.28985483 -304.90923691 56.29033072 -306.90695429 56.29080774 C-308.39300557 56.2911623 -308.39300557 56.2911623 -309.90907808 56.29152403 C-314.92856182 56.29272524 -319.94804556 56.29394068 -324.9675293 56.29516602 C-325.96366645 56.29540617 -326.9598036 56.29564632 -327.98612673 56.29589374 C-360.28142651 56.30378622 -392.57668957 56.32721589 -424.87197332 56.35972196 C-459.00762854 56.39401773 -493.14326228 56.41373103 -527.27893502 56.41702431 C-531.02619271 56.41744186 -534.7734504 56.41792142 -538.52070808 56.41844749 C-539.904752 56.41863228 -539.904752 56.41863228 -541.3167564 56.4188208 C-556.16832514 56.42115327 -571.01985125 56.43681597 -585.8714048 56.45728934 C-600.80026441 56.47754273 -615.72907279 56.48302696 -630.6579436 56.47351871 C-639.52708811 56.46830168 -648.39606211 56.4741907 -657.2651821 56.49605338 C-663.19231027 56.50955962 -669.11932107 56.50848604 -675.04645041 56.49565142 C-678.42203118 56.48875338 -681.79702091 56.49030701 -685.1726151 56.50521151 C-688.81516938 56.52029893 -692.45686913 56.51067822 -696.09940243 56.49498463 C-697.658384 56.51031794 -697.658384 56.51031794 -699.24886015 56.52596101 C-708.86773276 56.4355591 -717.61133674 53.66036848 -726 49 C-726 48.67 -726 48.34 -726 48 C-721.05 48 -716.1 48 -711 48 C-711 48.33 -711 48.66 -711 49 C-706.34947128 49.26932521 -706.34947128 49.26932521 -702 48 C-702 48.66 -702 49.32 -702 50 C-485.52 50 -269.04 50 -46 50 C-46 49.34 -46 48.68 -46 48 C-38.41 48 -30.82 48 -23 48 C-22.67 46.35 -22.34 44.7 -22 43 C-21 42 -21 42 -17.9375 41.9375 C-16.968125 41.958125 -15.99875 41.97875 -15 42 C-15 41.01 -15 40.02 -15 39 C-15.66 39 -16.32 39 -17 39 C-16.855625 38.319375 -16.71125 37.63875 -16.5625 36.9375 C-15.93054091 33.63726918 -15.45686059 30.32855574 -15 27 C-14.01 27 -13.02 27 -12 27 C-11.87625 26.278125 -11.7525 25.55625 -11.625 24.8125 C-11.0095069 22.04278106 -10.11555626 19.6029646 -9 17 C-8.01 17 -7.02 17 -6 17 C-6 16.34 -6 15.68 -6 15 C-5.34 14.67 -4.68 14.34 -4 14 C-4 12.68 -4 11.36 -4 10 C-2.68 9.67 -1.36 9.34 0 9 C0 6.03 0 3.06 0 0 Z " fill="#2674FA" transform="translate(874,733)"/>
<path d="M0 0 C55.44 0 110.88 0 168 0 C168 0.66 168 1.32 168 2 C169.98 2 171.96 2 174 2 C174 2.66 174 3.32 174 4 C175.32 4 176.64 4 178 4 C178 4.66 178 5.32 178 6 C178.66 6 179.32 6 180 6 C180 6.66 180 7.32 180 8 C181.32 8 182.64 8 184 8 C184 8.66 184 9.32 184 10 C184.66 10 185.32 10 186 10 C186 10.66 186 11.32 186 12 C186.66 12 187.32 12 188 12 C188 12.66 188 13.32 188 14 C188.66 14 189.32 14 190 14 C190 14.66 190 15.32 190 16 C190.66 16 191.32 16 192 16 C192 16.66 192 17.32 192 18 C192.66 18 193.32 18 194 18 C194 18.66 194 19.32 194 20 C194.66 20 195.32 20 196 20 C196 20.66 196 21.32 196 22 C196.66 22 197.32 22 198 22 C198 22.66 198 23.32 198 24 C198.66 24 199.32 24 200 24 C200 24.66 200 25.32 200 26 C200.66 26 201.32 26 202 26 C202 26.66 202 27.32 202 28 C202.66 28 203.32 28 204 28 C204 28.66 204 29.32 204 30 C204.66 30 205.32 30 206 30 C206 30.66 206 31.32 206 32 C206.66 32 207.32 32 208 32 C208 32.66 208 33.32 208 34 C208.66 34 209.32 34 210 34 C210 34.66 210 35.32 210 36 C210.66 36 211.32 36 212 36 C212 36.66 212 37.32 212 38 C212.66 38 213.32 38 214 38 C214 38.66 214 39.32 214 40 C215.32 40 216.64 40 218 40 C218 40.66 218 41.32 218 42 C218.66 42 219.32 42 220 42 C220 42.66 220 43.32 220 44 C221.32 44 222.64 44 224 44 C224 44.66 224 45.32 224 46 C225.32 46 226.64 46 228 46 C228 46.66 228 47.32 228 48 C229.32 48 230.64 48 232 48 C232 48.66 232 49.32 232 50 C234.64 50 237.28 50 240 50 C240 50.66 240 51.32 240 52 C384.54 52 529.08 52 678 52 C678 52.66 678 53.32 678 54 C680.64 54 683.28 54 686 54 C686 54.66 686 55.32 686 56 C687.32 56 688.64 56 690 56 C690 56.66 690 57.32 690 58 C690.66 58 691.32 58 692 58 C692 58.66 692 59.32 692 60 C693.32 60 694.64 60 696 60 C696 60.66 696 61.32 696 62 C696.66 62 697.32 62 698 62 C698 62.66 698 63.32 698 64 C698.66 64 699.32 64 700 64 C700 64.66 700 65.32 700 66 C700.66 66 701.32 66 702 66 C702 66.66 702 67.32 702 68 C702.66 68 703.32 68 704 68 C704 68.66 704 69.32 704 70 C704.66 70 705.32 70 706 70 C706 70.66 706 71.32 706 72 C706.66 72 707.32 72 708 72 C708 73.32 708 74.64 708 76 C708.66 76 709.32 76 710 76 C710 77.32 710 78.64 710 80 C710.66 80 711.32 80 712 80 C712 81.32 712 82.64 712 84 C712.66 84 713.32 84 714 84 C714 87.3 714 90.6 714 94 C714.66 94 715.32 94 716 94 C716 241.18 716 388.36 716 540 C715.34 540 714.68 540 714 540 C714 542.64 714 545.28 714 548 C713.34 548 712.68 548 712 548 C712 549.98 712 551.96 712 554 C711.34 554 710.68 554 710 554 C710 555.32 710 556.64 710 558 C709.34 558 708.68 558 708 558 C708 558.66 708 559.32 708 560 C707.34 560 706.68 560 706 560 C706 561.32 706 562.64 706 564 C705.34 564 704.68 564 704 564 C704 564.66 704 565.32 704 566 C703.34 566 702.68 566 702 566 C702 566.66 702 567.32 702 568 C701.34 568 700.68 568 700 568 C700 568.66 700 569.32 700 570 C699.34 570 698.68 570 698 570 C698 570.66 698 571.32 698 572 C696.68 572 695.36 572 694 572 C694 572.66 694 573.32 694 574 C693.34 574 692.68 574 692 574 C692 574.66 692 575.32 692 576 C690.68 576 689.36 576 688 576 C688 576.66 688 577.32 688 578 C686.02 578 684.04 578 682 578 C682 578.66 682 579.32 682 580 C679.36 580 676.72 580 674 580 C674 580.66 674 581.32 674 582 C452.9 582 231.8 582 4 582 C4 581.34 4 580.68 4 580 C1.36 580 -1.28 580 -4 580 C-4 579.34 -4 578.68 -4 578 C-5.98 578 -7.96 578 -10 578 C-10 577.34 -10 576.68 -10 576 C-11.32 576 -12.64 576 -14 576 C-14 575.34 -14 574.68 -14 574 C-14.66 574 -15.32 574 -16 574 C-16 573.34 -16 572.68 -16 572 C-17.32 572 -18.64 572 -20 572 C-20 571.34 -20 570.68 -20 570 C-20.66 570 -21.32 570 -22 570 C-22 569.34 -22 568.68 -22 568 C-22.66 568 -23.32 568 -24 568 C-24 567.34 -24 566.68 -24 566 C-24.66 566 -25.32 566 -26 566 C-26 565.34 -26 564.68 -26 564 C-26.66 564 -27.32 564 -28 564 C-28 562.68 -28 561.36 -28 560 C-28.66 560 -29.32 560 -30 560 C-30 559.34 -30 558.68 -30 558 C-30.66 558 -31.32 558 -32 558 C-32 556.68 -32 555.36 -32 554 C-32.66 554 -33.32 554 -34 554 C-34 552.02 -34 550.04 -34 548 C-34.66 548 -35.32 548 -36 548 C-36 545.36 -36 542.72 -36 540 C-36.66 540 -37.32 540 -38 540 C-38 405.36 -38 270.72 -38 132 C-37.34 132 -36.68 132 -36 132 C-35.99902319 132.85241107 -35.99804638 133.70482213 -35.99703997 134.58306384 C-35.93875832 185.11241974 -35.86495422 235.64173267 -35.77101372 286.17103551 C-35.75974566 292.23918623 -35.74860719 298.30733718 -35.73754883 304.37548828 C-35.73534514 305.58353954 -35.73314146 306.7915908 -35.730871 308.03624967 C-35.69550598 327.59261198 -35.67063734 347.14897426 -35.64965298 366.70535669 C-35.62788462 386.77446045 -35.59482431 406.84352274 -35.55129844 426.91259122 C-35.52479964 439.29462103 -35.5070912 451.67659918 -35.50065396 464.05865595 C-35.49539468 472.55138688 -35.4791595 481.04405282 -35.45433434 489.53674892 C-35.44033796 494.43536178 -35.43114161 499.33385835 -35.43499184 504.23249245 C-35.43841369 508.72234595 -35.42797046 513.21195149 -35.40676448 517.70175424 C-35.40151634 519.32106023 -35.4012408 520.94039211 -35.40660437 522.55969772 C-35.45532361 538.94479464 -32.80511247 553.00482964 -21.1875 565.375 C-10.43402061 575.32351644 2.38678412 579.63423678 16.87545776 579.50336456 C18.01354236 579.50917833 19.15162695 579.51499209 20.32419896 579.52098203 C24.12374051 579.535537 27.92263152 579.52171696 31.72216797 579.50793457 C34.47935134 579.51032861 37.23650925 579.51873566 39.99368095 579.52684355 C45.98108055 579.54125525 51.96833573 579.54087376 57.95574188 579.53065491 C66.85932364 579.51550038 75.76278398 579.52327265 84.66636497 579.53548814 C100.56979076 579.55653558 116.47315222 579.55473173 132.37658411 579.54317249 C146.29401137 579.53310653 160.21141506 579.5304852 174.12884521 579.53526306 C175.05235849 579.5355686 175.97587177 579.53587414 176.92737029 579.53618894 C180.67630045 579.53743431 184.42523059 579.53870792 188.17416071 579.540028 C223.33524514 579.55226141 258.49628862 579.54117425 293.65736672 579.51964041 C324.88943829 579.50065827 356.12144462 579.50235679 387.35351562 579.52148438 C422.45067661 579.54290727 457.54780142 579.55139379 492.64496803 579.53903532 C496.38703028 579.53775247 500.12909253 579.53650111 503.87115479 579.53526306 C504.79253223 579.53494675 505.71390967 579.53463044 506.66320764 579.53430455 C520.57119702 579.52975646 534.47916024 579.5350724 548.387146 579.54518127 C564.20264599 579.55661936 580.01807164 579.55375675 595.83356237 579.5320583 C604.68274697 579.52031762 613.53177055 579.51953989 622.38095095 579.534643 C628.2944726 579.54362189 634.20786534 579.53801349 640.12136791 579.52062392 C643.48900367 579.51112341 646.85605805 579.51003202 650.22372413 579.52224785 C653.85763642 579.53441868 657.49067537 579.52192772 661.12454224 579.50336456 C662.67966487 579.51741156 662.67966487 579.51741156 664.26620412 579.53174233 C675.86582722 579.41338321 685.47238747 575.42231659 695 569 C695.886875 568.4225 696.77375 567.845 697.6875 567.25 C707.58450418 557.62048242 712.93811919 544.92773115 713.23140382 531.21269674 C713.2735057 527.21217867 713.27008225 523.21237967 713.26069641 519.21170044 C713.26371891 517.38860921 713.26760888 515.56551925 713.27228898 513.74243152 C713.282565 508.74448487 713.28038815 503.74660999 713.27610838 498.74865746 C713.27364046 493.35386396 713.28265614 487.95908771 713.29014587 482.56430054 C713.30289292 471.9999794 713.30468656 461.43568368 713.30234561 450.87135614 C713.30056234 442.2842284 713.30231229 433.69710836 713.30657005 425.10998154 C713.30716524 423.88766723 713.30776043 422.66535292 713.30837366 421.40599879 C713.30958541 418.92284164 713.31079955 416.43968449 713.31201603 413.95652734 C713.32289154 390.6713719 713.32072899 367.38623094 713.31463119 344.10107468 C713.30946172 322.80185007 713.32071825 301.50268857 713.33972941 280.20347084 C713.35910382 258.32947843 713.36736452 236.45550766 713.36360615 214.58150661 C713.36169355 202.30250282 713.36418751 190.02353796 713.37832069 177.74454117 C713.39023036 167.29162299 713.39164397 156.8387677 713.37953053 146.38584866 C713.37363905 141.05388089 713.37254995 135.72202818 713.38453293 130.39006805 C713.39538191 125.50589495 713.39229997 120.62193312 713.37827124 115.73776995 C713.37562163 113.9740596 713.37799915 112.21033275 713.38600711 110.4466386 C713.44898413 95.53762355 711.29236647 84.64306996 703 72 C702.61070312 71.3915625 702.22140625 70.783125 701.8203125 70.15625 C698.13827068 65.10352108 692.4236551 61.8830681 687 59 C686.23266568 58.58780354 685.46533136 58.17560708 684.67474449 57.75091982 C675.49407497 53.34595749 666.94975105 53.30766216 657.02297974 53.39440918 C655.2159337 53.39167462 653.4088899 53.38672937 651.60185516 53.37977934 C646.66191108 53.3670293 641.72249738 53.38514808 636.7826097 53.40842414 C631.44507272 53.42803243 626.10757798 53.41856727 620.77001953 53.41249084 C611.52773102 53.40570606 602.28560055 53.41657373 593.04333878 53.4389801 C579.66546811 53.47094725 566.28774452 53.47052588 552.90984581 53.46133965 C531.18320582 53.44683238 509.45661566 53.45090226 487.72998047 53.47021484 C486.43054956 53.47136329 485.13111866 53.47251173 483.79231106 53.47369498 C473.25053877 53.48315114 462.7087674 53.49350708 452.166996 53.50390339 C442.95491827 53.51295075 433.7428403 53.52163966 424.53076172 53.52978516 C423.23352598 53.53093879 421.93629025 53.53209243 420.59974433 53.53328103 C398.95502571 53.55192156 377.31035017 53.5509826 355.66562927 53.53612375 C342.32459138 53.52791425 328.98378789 53.53735874 315.64278553 53.56971943 C306.499326 53.59078167 297.35596987 53.59416959 288.21249236 53.58377111 C282.94080251 53.57841251 277.66944921 53.58124102 272.39780807 53.60611153 C267.56529914 53.62878165 262.73335492 53.6281715 257.90083359 53.60962588 C256.15935781 53.60699391 254.41784341 53.61271655 252.67643251 53.62797683 C233.75572344 53.78396251 219.58663166 48.18282213 205.76513672 34.97949219 C202.05327385 31.31544247 198.46887749 27.53127173 194.89282227 23.73535156 C183.44034529 11.64130455 171.37563792 2.11588182 154.00053406 1.61231995 C151.28010091 1.5915796 148.5627273 1.58657663 145.8425293 1.59594727 C144.33506772 1.59023422 142.82761046 1.58326637 141.32015991 1.57514954 C137.25176402 1.55730347 133.18358483 1.55837059 129.11516166 1.56409192 C125.70599934 1.56719704 122.29687785 1.5610765 118.88772136 1.55505317 C110.83730333 1.54103685 102.78699147 1.54254432 94.73657227 1.55395508 C86.46133347 1.56542611 78.18641916 1.55137118 69.91122311 1.5245586 C62.77964408 1.50232586 55.64816632 1.49578143 48.51655513 1.50163502 C44.26902638 1.50498864 40.02170541 1.50269695 35.77420616 1.48538399 C31.77586924 1.4697961 27.77800869 1.47399983 23.77968979 1.49268913 C22.32255322 1.49634293 20.86538041 1.49336168 19.40827751 1.48280334 C3.88519005 1.3790163 -9.73326212 4.95169757 -21.25 15.75 C-28.74734566 23.70173025 -33.26407387 33.237258 -35 44 C-35.33 44 -35.66 44 -36 44 C-36 40.7 -36 37.4 -36 34 C-35.34 34 -34.68 34 -34 34 C-34 32.02 -34 30.04 -34 28 C-33.34 28 -32.68 28 -32 28 C-32 26.68 -32 25.36 -32 24 C-31.34 24 -30.68 24 -30 24 C-30 22.68 -30 21.36 -30 20 C-29.34 20 -28.68 20 -28 20 C-28 19.34 -28 18.68 -28 18 C-27.34 18 -26.68 18 -26 18 C-26 17.34 -26 16.68 -26 16 C-25.34 16 -24.68 16 -24 16 C-24 15.34 -24 14.68 -24 14 C-23.34 14 -22.68 14 -22 14 C-22 13.34 -22 12.68 -22 12 C-21.34 12 -20.68 12 -20 12 C-20 11.34 -20 10.68 -20 10 C-19.34 10 -18.68 10 -18 10 C-18 9.34 -18 8.68 -18 8 C-16.68 8 -15.36 8 -14 8 C-14 7.34 -14 6.68 -14 6 C-12.68 6 -11.36 6 -10 6 C-10 5.34 -10 4.68 -10 4 C-8.68 4 -7.36 4 -6 4 C-6 3.34 -6 2.68 -6 2 C-4.02 2 -2.04 2 0 2 C0 1.34 0 0.68 0 0 Z " fill="#E7EDFD" transform="translate(161,209)"/>
<path d="M0 0 C330 0 660 0 1000 0 C1000 330 1000 660 1000 1000 C670 1000 340 1000 0 1000 C0 670 0 340 0 0 Z M1 1 C1 330.34 1 659.68 1 999 C330.34 999 659.68 999 999 999 C999 669.66 999 340.32 999 1 C669.66 1 340.32 1 1 1 Z " fill="#FFFFFF" transform="translate(0,0)"/>
<path d="M0 0 C55.44 0 110.88 0 168 0 C168 0.66 168 1.32 168 2 C169.98 2 171.96 2 174 2 C174 2.66 174 3.32 174 4 C175.32 4 176.64 4 178 4 C178 4.66 178 5.32 178 6 C178.66 6 179.32 6 180 6 C180 6.66 180 7.32 180 8 C181.32 8 182.64 8 184 8 C184 8.66 184 9.32 184 10 C184.66 10 185.32 10 186 10 C186 10.66 186 11.32 186 12 C186.66 12 187.32 12 188 12 C188 12.66 188 13.32 188 14 C188.66 14 189.32 14 190 14 C190 14.66 190 15.32 190 16 C190.66 16 191.32 16 192 16 C192 16.66 192 17.32 192 18 C192.66 18 193.32 18 194 18 C194 18.66 194 19.32 194 20 C194.66 20 195.32 20 196 20 C196 20.66 196 21.32 196 22 C196.66 22 197.32 22 198 22 C198 22.66 198 23.32 198 24 C198.66 24 199.32 24 200 24 C200 24.66 200 25.32 200 26 C200.66 26 201.32 26 202 26 C202 26.66 202 27.32 202 28 C202.66 28 203.32 28 204 28 C204 28.66 204 29.32 204 30 C204.66 30 205.32 30 206 30 C206 30.66 206 31.32 206 32 C206.66 32 207.32 32 208 32 C208 32.66 208 33.32 208 34 C208.66 34 209.32 34 210 34 C210 34.66 210 35.32 210 36 C210.66 36 211.32 36 212 36 C212 36.66 212 37.32 212 38 C212.66 38 213.32 38 214 38 C214 38.66 214 39.32 214 40 C215.32 40 216.64 40 218 40 C218 40.66 218 41.32 218 42 C218.66 42 219.32 42 220 42 C220 42.66 220 43.32 220 44 C221.32 44 222.64 44 224 44 C224 44.66 224 45.32 224 46 C225.32 46 226.64 46 228 46 C228 46.66 228 47.32 228 48 C229.32 48 230.64 48 232 48 C232 48.66 232 49.32 232 50 C234.64 50 237.28 50 240 50 C240 50.66 240 51.32 240 52 C384.54 52 529.08 52 678 52 C678 52.66 678 53.32 678 54 C680.64 54 683.28 54 686 54 C686 54.66 686 55.32 686 56 C687.32 56 688.64 56 690 56 C690 56.66 690 57.32 690 58 C690.66 58 691.32 58 692 58 C692 58.66 692 59.32 692 60 C693.32 60 694.64 60 696 60 C696 60.66 696 61.32 696 62 C696.66 62 697.32 62 698 62 C698 62.66 698 63.32 698 64 C698.66 64 699.32 64 700 64 C700 64.66 700 65.32 700 66 C700.66 66 701.32 66 702 66 C702 66.66 702 67.32 702 68 C702.66 68 703.32 68 704 68 C704 68.66 704 69.32 704 70 C704.66 70 705.32 70 706 70 C706 70.66 706 71.32 706 72 C706.66 72 707.32 72 708 72 C708 73.32 708 74.64 708 76 C708.66 76 709.32 76 710 76 C710 77.32 710 78.64 710 80 C710.66 80 711.32 80 712 80 C712 81.32 712 82.64 712 84 C712.66 84 713.32 84 714 84 C714 87.3 714 90.6 714 94 C714.66 94 715.32 94 716 94 C716 241.18 716 388.36 716 540 C715.34 540 714.68 540 714 540 C714 542.64 714 545.28 714 548 C713.34 548 712.68 548 712 548 C712 549.98 712 551.96 712 554 C711.34 554 710.68 554 710 554 C710 555.32 710 556.64 710 558 C709.34 558 708.68 558 708 558 C708 558.66 708 559.32 708 560 C707.34 560 706.68 560 706 560 C706 561.32 706 562.64 706 564 C705.34 564 704.68 564 704 564 C704 564.66 704 565.32 704 566 C703.34 566 702.68 566 702 566 C702 566.66 702 567.32 702 568 C701.34 568 700.68 568 700 568 C700 568.66 700 569.32 700 570 C699.34 570 698.68 570 698 570 C698 570.66 698 571.32 698 572 C696.68 572 695.36 572 694 572 C694 572.66 694 573.32 694 574 C693.34 574 692.68 574 692 574 C692 574.66 692 575.32 692 576 C690.68 576 689.36 576 688 576 C688 576.66 688 577.32 688 578 C686.02 578 684.04 578 682 578 C682 578.66 682 579.32 682 580 C679.03 580 676.06 580 673 580 C675.79175122 578.13883252 677.84982761 577.32440131 681 576.3125 C694.02838056 571.61402194 702.8546842 563.95065638 708.875 551.4375 C713.54795036 540.96420917 713.28698705 530.41798471 713.26069641 519.21170044 C713.26371891 517.38860921 713.26760888 515.56551925 713.27228898 513.74243152 C713.282565 508.74448487 713.28038815 503.74660999 713.27610838 498.74865746 C713.27364046 493.35386396 713.28265614 487.95908771 713.29014587 482.56430054 C713.30289292 471.9999794 713.30468656 461.43568368 713.30234561 450.87135614 C713.30056234 442.2842284 713.30231229 433.69710836 713.30657005 425.10998154 C713.30716524 423.88766723 713.30776043 422.66535292 713.30837366 421.40599879 C713.30958541 418.92284164 713.31079955 416.43968449 713.31201603 413.95652734 C713.32289154 390.6713719 713.32072899 367.38623094 713.31463119 344.10107468 C713.30946172 322.80185007 713.32071825 301.50268857 713.33972941 280.20347084 C713.35910382 258.32947843 713.36736452 236.45550766 713.36360615 214.58150661 C713.36169355 202.30250282 713.36418751 190.02353796 713.37832069 177.74454117 C713.39023036 167.29162299 713.39164397 156.8387677 713.37953053 146.38584866 C713.37363905 141.05388089 713.37254995 135.72202818 713.38453293 130.39006805 C713.39538191 125.50589495 713.39229997 120.62193312 713.37827124 115.73776995 C713.37562163 113.9740596 713.37799915 112.21033275 713.38600711 110.4466386 C713.44898413 95.53762355 711.29236647 84.64306996 703 72 C702.61070312 71.3915625 702.22140625 70.783125 701.8203125 70.15625 C698.13827068 65.10352108 692.4236551 61.8830681 687 59 C686.23266568 58.58780354 685.46533136 58.17560708 684.67474449 57.75091982 C675.49407497 53.34595749 666.94975105 53.30766216 657.02297974 53.39440918 C655.2159337 53.39167462 653.4088899 53.38672937 651.60185516 53.37977934 C646.66191108 53.3670293 641.72249738 53.38514808 636.7826097 53.40842414 C631.44507272 53.42803243 626.10757798 53.41856727 620.77001953 53.41249084 C611.52773102 53.40570606 602.28560055 53.41657373 593.04333878 53.4389801 C579.66546811 53.47094725 566.28774452 53.47052588 552.90984581 53.46133965 C531.18320582 53.44683238 509.45661566 53.45090226 487.72998047 53.47021484 C486.43054956 53.47136329 485.13111866 53.47251173 483.79231106 53.47369498 C473.25053877 53.48315114 462.7087674 53.49350708 452.166996 53.50390339 C442.95491827 53.51295075 433.7428403 53.52163966 424.53076172 53.52978516 C423.23352598 53.53093879 421.93629025 53.53209243 420.59974433 53.53328103 C398.95502571 53.55192156 377.31035017 53.5509826 355.66562927 53.53612375 C342.32459138 53.52791425 328.98378789 53.53735874 315.64278553 53.56971943 C306.499326 53.59078167 297.35596987 53.59416959 288.21249236 53.58377111 C282.94080251 53.57841251 277.66944921 53.58124102 272.39780807 53.60611153 C267.56529914 53.62878165 262.73335492 53.6281715 257.90083359 53.60962588 C256.15935781 53.60699391 254.41784341 53.61271655 252.67643251 53.62797683 C233.75572344 53.78396251 219.58663166 48.18282213 205.76513672 34.97949219 C202.05327385 31.31544247 198.46887749 27.53127173 194.89282227 23.73535156 C183.44034529 11.64130455 171.37563792 2.11588182 154.00053406 1.61231995 C151.28010091 1.5915796 148.5627273 1.58657663 145.8425293 1.59594727 C144.33506772 1.59023422 142.82761046 1.58326637 141.32015991 1.57514954 C137.25176402 1.55730347 133.18358483 1.55837059 129.11516166 1.56409192 C125.70599934 1.56719704 122.29687785 1.5610765 118.88772136 1.55505317 C110.83730333 1.54103685 102.78699147 1.54254432 94.73657227 1.55395508 C86.46133347 1.56542611 78.18641916 1.55137118 69.91122311 1.5245586 C62.77964408 1.50232586 55.64816632 1.49578143 48.51655513 1.50163502 C44.26902638 1.50498864 40.02170541 1.50269695 35.77420616 1.48538399 C31.77586924 1.4697961 27.77800869 1.47399983 23.77968979 1.49268913 C22.32255322 1.49634293 20.86538041 1.49336168 19.40827751 1.48280334 C3.88519005 1.3790163 -9.73326212 4.95169757 -21.25 15.75 C-28.74734566 23.70173025 -33.26407387 33.237258 -35 44 C-35.33 44 -35.66 44 -36 44 C-36 40.7 -36 37.4 -36 34 C-35.34 34 -34.68 34 -34 34 C-34 32.02 -34 30.04 -34 28 C-33.34 28 -32.68 28 -32 28 C-32 26.68 -32 25.36 -32 24 C-31.34 24 -30.68 24 -30 24 C-30 22.68 -30 21.36 -30 20 C-29.34 20 -28.68 20 -28 20 C-28 19.34 -28 18.68 -28 18 C-27.34 18 -26.68 18 -26 18 C-26 17.34 -26 16.68 -26 16 C-25.34 16 -24.68 16 -24 16 C-24 15.34 -24 14.68 -24 14 C-23.34 14 -22.68 14 -22 14 C-22 13.34 -22 12.68 -22 12 C-21.34 12 -20.68 12 -20 12 C-20 11.34 -20 10.68 -20 10 C-19.34 10 -18.68 10 -18 10 C-18 9.34 -18 8.68 -18 8 C-16.68 8 -15.36 8 -14 8 C-14 7.34 -14 6.68 -14 6 C-12.68 6 -11.36 6 -10 6 C-10 5.34 -10 4.68 -10 4 C-8.68 4 -7.36 4 -6 4 C-6 3.34 -6 2.68 -6 2 C-4.02 2 -2.04 2 0 2 C0 1.34 0 0.68 0 0 Z " fill="#CAE6FB" transform="translate(161,209)"/>
<path d="M0 0 C31.35 0 62.7 0 95 0 C95 0.33 95 0.66 95 1 C95.63502441 1.02505615 96.27004883 1.0501123 96.92431641 1.07592773 C99.82471542 1.19256789 102.72484349 1.31498393 105.625 1.4375 C107.12353516 1.49647461 107.12353516 1.49647461 108.65234375 1.55664062 C113.51693466 1.76604354 118.20766908 2.07720489 123 3 C123.66 3 124.32 3 125 3 C125 2.01 125 1.02 125 0 C129.54545455 -0.37878788 129.54545455 -0.37878788 131.875 1.5625 C134.09335736 3.38691671 134.09335736 3.38691671 137.75 2.6875 C138.8225 2.460625 139.895 2.23375 141 2 C141 2.66 141 3.32 141 4 C140.34 4 139.68 4 139 4 C139 4.66 139 5.32 139 6 C139.66 6 140.32 6 141 6 C141.69103409 15.03280274 142.11191923 23.93454225 142 33 C146.95 33 151.9 33 157 33 C157 33.33 157 33.66 157 34 C151.72 34 146.44 34 141 34 C140.87625 31.2775 140.87625 31.2775 140.75 28.5 C140.15885466 21.53762152 138.68736952 16.5495557 133.5625 11.6875 C132.716875 11.130625 131.87125 10.57375 131 10 C130.34646288 9.47813101 129.69292575 8.95626201 129.01958448 8.4185788 C124.45058541 6.27209631 120.11285058 6.58515752 115.12414837 6.61523914 C114.00911764 6.61008924 112.8940869 6.60493933 111.74526736 6.59963337 C107.98222317 6.58594021 104.21952395 6.59372024 100.45646667 6.60127258 C97.74214825 6.59750232 95.02784788 6.58921382 92.31353933 6.58113068 C86.39845003 6.56591831 80.48343377 6.56184415 74.56832695 6.56500816 C65.772766 6.56966275 56.97728799 6.55719416 48.18174338 6.54117843 C33.38703935 6.51472579 18.59235406 6.50221737 3.7976284 6.49761391 C-10.85424843 6.49300948 -25.50609924 6.48223322 -40.15796471 6.46318626 C-41.06845084 6.46200614 -41.97893698 6.46082601 -42.9170136 6.45961012 C-47.54077844 6.45358483 -52.16454312 6.447449 -56.78830775 6.44127061 C-89.5514919 6.39769056 -122.31467544 6.36799066 -155.07788086 6.34643555 C-186.90992162 6.32546134 -218.74194688 6.29821113 -250.57397461 6.26245117 C-251.55491171 6.26135169 -252.53584882 6.26025222 -253.54651129 6.25911942 C-263.39734707 6.24807123 -273.24818271 6.23689531 -283.09901824 6.2256258 C-303.16689738 6.20267073 -323.23477743 6.1805683 -343.30265808 6.15898132 C-344.22537785 6.1579877 -345.14809763 6.15699409 -346.0987786 6.15597036 C-407.73250638 6.08969861 -469.36625233 6.04330358 -531 6 C-531 5.67 -531 5.34 -531 5 C-509.5632195 4.18303487 -488.14798862 3.80427049 -466.69687104 3.69668961 C-463.16955275 3.67847973 -459.64225217 3.65751577 -456.11494797 3.63677824 C-445.20730631 3.57300748 -434.29962822 3.51893819 -423.391922 3.46757126 C-418.10278108 3.44263974 -412.81364831 3.41628954 -407.52451622 3.38955754 C-313.95942208 2.9182374 -220.39390187 2.91993996 40 3 C20.2 2.505 20.2 2.505 0 2 C0 1.34 0 0.68 0 0 Z " fill="#0581E8" transform="translate(703,297)"/>
<path d="M0 0 C0.33 0 0.66 0 1 0 C1.33 2.97 1.66 5.94 2 9 C227.72 9 453.44 9 686 9 C686.33 6.03 686.66 3.06 687 0 C687.33 0 687.66 0 688 0 C688 3.96 688 7.92 688 12 C460.96 12 233.92 12 0 12 C0 8.04 0 4.08 0 0 Z " fill="#ABDDFE" transform="translate(156,319)"/>
<path d="M0 0 C4.95 0 9.9 0 15 0 C15 0.33 15 0.66 15 1 C17.97 1.66 20.94 2.32 24 3 C24 3.33 24 3.66 24 4 C22.35 4.33 20.7 4.66 19 5 C240.1 5.33 461.2 5.66 689 6 C685.8057583 8.12949446 685.01982208 8.25042882 681.35797697 8.25299966 C680.3967871 8.25851915 679.43559724 8.26403864 678.4452804 8.26972538 C676.85469309 8.26355943 676.85469309 8.26355943 675.23197269 8.25726891 C674.1042727 8.26077498 672.9765727 8.26428105 671.81469998 8.26789337 C667.99645965 8.27727438 664.17836962 8.27226682 660.36012268 8.26742554 C657.61071507 8.27005307 654.86131541 8.27567826 652.11191219 8.28115618 C646.11363583 8.29148425 640.11539176 8.29429512 634.11710739 8.29224396 C625.19717804 8.28920113 616.27728459 8.29750211 607.3573622 8.30799321 C590.49939277 8.32736566 573.64143546 8.33296269 556.78345621 8.33410732 C543.76398535 8.33502555 530.74451928 8.33913775 517.72504997 8.34550858 C513.98062148 8.34730362 510.23619299 8.34908324 506.49176449 8.35085833 C505.09552279 8.35152148 505.09552279 8.35152148 503.6710742 8.35219802 C477.47611587 8.36451231 451.2811592 8.37239858 425.08619785 8.37151146 C424.09794787 8.3714803 423.10969789 8.37144914 422.09150093 8.37141704 C417.08239404 8.37125082 412.07328715 8.37105274 407.06418026 8.37084763 C406.06931795 8.37080774 405.07445564 8.37076785 404.04944599 8.37072675 C402.03758842 8.37064587 400.02573085 8.37056228 398.01387327 8.37047596 C366.7228533 8.36925085 335.4318767 8.38425388 304.14086914 8.41162109 C269.00092968 8.44234177 233.86101872 8.4595535 198.72106498 8.45769465 C194.9738073 8.45754539 191.22654961 8.45744797 187.47929192 8.45738602 C186.55659597 8.45736271 185.63390003 8.4573394 184.6832436 8.45731538 C169.83167787 8.45725383 154.98014975 8.47002837 140.1285952 8.48725055 C125.19973202 8.50420416 110.27092388 8.50618309 95.3420564 8.4930319 C86.47291527 8.48564016 77.60394133 8.48930728 68.7348179 8.50891658 C62.80768624 8.52091373 56.88067569 8.51832848 50.95354959 8.50397559 C47.57797192 8.49620993 44.20298161 8.49688217 40.8273849 8.51089029 C37.18482605 8.52500541 33.54312732 8.51442814 29.90059757 8.49777794 C28.86127652 8.5077143 27.82195548 8.51765066 26.75113985 8.52788812 C17.13271243 8.43498512 8.38844106 5.66024503 0 1 C0 0.67 0 0.34 0 0 Z " fill="#2277ED" transform="translate(148,781)"/>
<path d="M0 0 C0.66 0 1.32 0 2 0 C2.00097681 0.85241107 2.00195362 1.70482213 2.00296003 2.58306384 C2.06124168 53.11241974 2.13504578 103.64173267 2.22898628 154.17103551 C2.24025434 160.23918623 2.25139281 166.30733718 2.26245117 172.37548828 C2.26465486 173.58353954 2.26685854 174.7915908 2.269129 176.03624967 C2.30449402 195.59261198 2.32936266 215.14897426 2.35034702 234.70535669 C2.37211538 254.77446045 2.40517569 274.84352274 2.44870156 294.91259122 C2.47520036 307.29462103 2.4929088 319.67659918 2.49934604 332.05865595 C2.50460532 340.55138688 2.5208405 349.04405282 2.54566566 357.53674892 C2.55966204 362.43536178 2.56885839 367.33385835 2.56500816 372.23249245 C2.56158631 376.72234595 2.57202954 381.21195149 2.59323552 385.70175424 C2.59848366 387.32106023 2.5987592 388.94039211 2.59339563 390.55969772 C2.54467639 406.94479464 5.19488753 421.00482964 16.8125 433.375 C24.48896486 440.47683505 33.0563713 444.09550364 43 447 C43 447.33 43 447.66 43 448 C40.03 448 37.06 448 34 448 C34 447.34 34 446.68 34 446 C32.02 446 30.04 446 28 446 C28 445.34 28 444.68 28 444 C26.68 444 25.36 444 24 444 C24 443.34 24 442.68 24 442 C23.34 442 22.68 442 22 442 C22 441.34 22 440.68 22 440 C20.68 440 19.36 440 18 440 C18 439.34 18 438.68 18 438 C17.34 438 16.68 438 16 438 C16 437.34 16 436.68 16 436 C15.34 436 14.68 436 14 436 C14 435.34 14 434.68 14 434 C13.34 434 12.68 434 12 434 C12 433.34 12 432.68 12 432 C11.34 432 10.68 432 10 432 C10 430.68 10 429.36 10 428 C9.34 428 8.68 428 8 428 C8 427.34 8 426.68 8 426 C7.34 426 6.68 426 6 426 C6 424.68 6 423.36 6 422 C5.34 422 4.68 422 4 422 C4 420.02 4 418.04 4 416 C3.34 416 2.68 416 2 416 C2 413.36 2 410.72 2 408 C1.34 408 0.68 408 0 408 C0 273.36 0 138.72 0 0 Z " fill="#D1E7FC" transform="translate(123,341)"/>
<path d="M0 0 C1.01443241 -0.00115384 2.02886482 -0.00230769 3.07403761 -0.0034965 C6.46467042 -0.00613805 9.8552555 -0.00166133 13.24588585 0.00279331 C15.70464793 0.00235711 18.16340997 0.00148129 20.62217176 0.00020415 C25.96340434 -0.00156462 31.3046227 -0.00023561 36.64585304 0.00384235 C44.58800686 0.00988921 52.53015366 0.01017706 60.47230936 0.00930037 C73.83370248 0.00798782 87.19509064 0.01132273 100.55648232 0.01731777 C113.78355115 0.02323732 127.01061792 0.02708423 140.23768806 0.02817059 C141.47189195 0.0282737 141.47189195 0.0282737 142.73102925 0.02837889 C146.90972634 0.02871723 151.08842343 0.02901861 155.26712053 0.02930576 C184.85520768 0.03140548 214.44329215 0.03814089 244.03137779 0.04760838 C272.77356515 0.05679457 301.51575176 0.06387732 330.25794029 0.06811619 C331.14409424 0.06824771 332.03024819 0.06837924 332.94325529 0.06851475 C341.84247864 0.06983329 350.741702 0.0711091 359.64092536 0.07235361 C377.76923499 0.07488974 395.89754456 0.07771099 414.02585411 0.08070469 C414.85934163 0.08084198 415.69282915 0.08097927 416.55157387 0.08112072 C472.19865157 0.09031945 527.84572774 0.10618524 583.49280357 0.12304783 C583.49280357 0.45304783 583.49280357 0.78304783 583.49280357 1.12304783 C547.5339011 2.13246308 511.58873639 2.24702153 475.61935128 2.19494918 C467.43661521 2.18341365 459.2538783 2.17864914 451.07113573 2.17432588 C437.04567906 2.16688027 423.02022682 2.15654391 408.99477401 2.14380938 C372.23021894 2.11052482 335.46565678 2.09707384 298.70108768 2.09217763 C295.91926946 2.09179739 293.13745124 2.09136426 290.35563302 2.09092617 C218.25447993 2.08021293 146.15556882 2.27026036 74.05530357 2.62304783 C71.55680276 2.63519495 69.05830193 2.64734095 66.5598011 2.65948582 C37.53739565 2.8010236 8.51506104 2.95383467 -20.50719643 3.12304783 C-20.50719643 2.46304783 -20.50719643 1.80304783 -20.50719643 1.12304783 C-13.6469778 0.31396635 -6.90466779 -0.01957315 0 0 Z " fill="#018FF6" transform="translate(197.5071964263916,298.8769521713257)"/>
<path d="M0 0 C55.44 0 110.88 0 168 0 C168 0.66 168 1.32 168 2 C169.98 2 171.96 2 174 2 C174 2.66 174 3.32 174 4 C175.32 4 176.64 4 178 4 C178 4.66 178 5.32 178 6 C178.66 6 179.32 6 180 6 C180 6.66 180 7.32 180 8 C181.32 8 182.64 8 184 8 C184 8.66 184 9.32 184 10 C184.66 10 185.32 10 186 10 C186 10.66 186 11.32 186 12 C186.66 12 187.32 12 188 12 C188 12.66 188 13.32 188 14 C188.66 14 189.32 14 190 14 C190 14.66 190 15.32 190 16 C190.66 16 191.32 16 192 16 C192 16.66 192 17.32 192 18 C192.66 18 193.32 18 194 18 C194 18.66 194 19.32 194 20 C194.66 20 195.32 20 196 20 C196 20.66 196 21.32 196 22 C196.66 22 197.32 22 198 22 C198 22.66 198 23.32 198 24 C198.66 24 199.32 24 200 24 C200 24.66 200 25.32 200 26 C200.66 26 201.32 26 202 26 C202 26.66 202 27.32 202 28 C202.66 28 203.32 28 204 28 C204 28.66 204 29.32 204 30 C204.66 30 205.32 30 206 30 C206 30.66 206 31.32 206 32 C206.66 32 207.32 32 208 32 C208 32.66 208 33.32 208 34 C208.66 34 209.32 34 210 34 C210 34.66 210 35.32 210 36 C210.66 36 211.32 36 212 36 C212 36.66 212 37.32 212 38 C212.66 38 213.32 38 214 38 C214 38.66 214 39.32 214 40 C215.32 40 216.64 40 218 40 C218 40.66 218 41.32 218 42 C218.66 42 219.32 42 220 42 C220 42.66 220 43.32 220 44 C221.32 44 222.64 44 224 44 C224 44.66 224 45.32 224 46 C225.32 46 226.64 46 228 46 C228 46.66 228 47.32 228 48 C229.32 48 230.64 48 232 48 C232 48.66 232 49.32 232 50 C234.64 50 237.28 50 240 50 C240 50.66 240 51.32 240 52 C225.25064565 51.93473737 214.33035284 43.137532 204.16918945 33.24365234 C200.81044856 29.84356962 197.48908373 26.4062464 194.203125 22.93579102 C183.0129226 11.15956325 170.86843127 2.10176189 154.00053406 1.61231995 C151.28010091 1.5915796 148.5627273 1.58657663 145.8425293 1.59594727 C144.33506772 1.59023422 142.82761046 1.58326637 141.32015991 1.57514954 C137.25176402 1.55730347 133.18358483 1.55837059 129.11516166 1.56409192 C125.70599934 1.56719704 122.29687785 1.5610765 118.88772136 1.55505317 C110.83730333 1.54103685 102.78699147 1.54254432 94.73657227 1.55395508 C86.46133347 1.56542611 78.18641916 1.55137118 69.91122311 1.5245586 C62.77964408 1.50232586 55.64816632 1.49578143 48.51655513 1.50163502 C44.26902638 1.50498864 40.02170541 1.50269695 35.77420616 1.48538399 C31.77586924 1.4697961 27.77800869 1.47399983 23.77968979 1.49268913 C22.32255322 1.49634293 20.86538041 1.49336168 19.40827751 1.48280334 C3.88519005 1.3790163 -9.73326212 4.95169757 -21.25 15.75 C-28.74734566 23.70173025 -33.26407387 33.237258 -35 44 C-35.33 44 -35.66 44 -36 44 C-36 40.7 -36 37.4 -36 34 C-35.34 34 -34.68 34 -34 34 C-34 32.02 -34 30.04 -34 28 C-33.34 28 -32.68 28 -32 28 C-32 26.68 -32 25.36 -32 24 C-31.34 24 -30.68 24 -30 24 C-30 22.68 -30 21.36 -30 20 C-29.34 20 -28.68 20 -28 20 C-28 19.34 -28 18.68 -28 18 C-27.34 18 -26.68 18 -26 18 C-26 17.34 -26 16.68 -26 16 C-25.34 16 -24.68 16 -24 16 C-24 15.34 -24 14.68 -24 14 C-23.34 14 -22.68 14 -22 14 C-22 13.34 -22 12.68 -22 12 C-21.34 12 -20.68 12 -20 12 C-20 11.34 -20 10.68 -20 10 C-19.34 10 -18.68 10 -18 10 C-18 9.34 -18 8.68 -18 8 C-16.68 8 -15.36 8 -14 8 C-14 7.34 -14 6.68 -14 6 C-12.68 6 -11.36 6 -10 6 C-10 5.34 -10 4.68 -10 4 C-8.68 4 -7.36 4 -6 4 C-6 3.34 -6 2.68 -6 2 C-4.02 2 -2.04 2 0 2 C0 1.34 0 0.68 0 0 Z " fill="#BFF6F8" transform="translate(161,209)"/>
<path d="M0 0 C0 0.66 0 1.32 0 2 C0.99 2 1.98 2 3 2 C3 2.66 3 3.32 3 4 C4.32 4 5.64 4 7 4 C7 4.66 7 5.32 7 6 C5.89591797 5.94779297 5.89591797 5.94779297 4.76953125 5.89453125 C-2.62479476 5.57036226 -2.62479476 5.57036226 -9 9 C-9 8.01 -9 7.02 -9 6 C-10.65 6 -12.3 6 -14 6 C-14.66 8.97 -15.32 11.94 -16 15 C-18.64 15.66 -21.28 16.32 -24 17 C-24 17.804375 -24 18.60875 -24 19.4375 C-24 21.95833333 -24 24.47916667 -24 27 C-24.66 27 -25.32 27 -26 27 C-26 26.01 -26 25.02 -26 24 C-27.65 24 -29.3 24 -31 24 C-30.938125 25.03125 -30.87625 26.0625 -30.8125 27.125 C-31.01135595 31.23468973 -31.94467803 33.48882496 -34 37 C-34.66 37 -35.32 37 -36 37 C-36.144375 37.969375 -36.28875 38.93875 -36.4375 39.9375 C-37 43 -37 43 -38 44 C-38.1105075 47.14734831 -38.15497832 50.27322083 -38.15821838 53.42140198 C-38.16315636 54.42272673 -38.16809434 55.42405148 -38.17318195 56.45571941 C-38.18863985 59.83839776 -38.19693989 63.22105701 -38.20532227 66.60375977 C-38.21489428 69.01767141 -38.22490395 71.43158136 -38.23532104 73.8454895 C-38.25681812 79.05656279 -38.27524812 84.2676375 -38.29092598 89.47873116 C-38.31359903 97.01317962 -38.34174536 104.54759974 -38.37124526 112.08202421 C-38.4189527 124.30491445 -38.46220831 136.52781626 -38.50268555 148.75073242 C-38.54202446 160.62704367 -38.58344681 172.50334462 -38.62768555 184.37963867 C-38.63040982 185.11118986 -38.63313409 185.84274106 -38.63594092 186.59646047 C-38.64962013 190.26628742 -38.66334046 193.93611422 -38.67708123 197.60594094 C-38.7910955 228.070606 -38.89782005 258.53529281 -39 289 C-39.33 289 -39.66 289 -40 289 C-40.06849567 257.72091173 -40.12155887 226.44184337 -40.15319599 195.16269786 C-40.15694793 191.46661942 -40.16083092 187.77054112 -40.16479492 184.07446289 C-40.16558185 183.33866646 -40.16636878 182.60287002 -40.16717956 181.84477673 C-40.18021952 169.94407631 -40.20386557 158.04341954 -40.23145839 146.14274498 C-40.25955188 133.9238705 -40.27618458 121.70501882 -40.28226548 109.48611337 C-40.28637376 101.95152419 -40.29933097 94.41705842 -40.3237494 86.88250724 C-40.34154056 81.09676634 -40.34335568 75.31110382 -40.33932304 69.52534103 C-40.34014651 67.15788197 -40.346089 64.79041812 -40.35761642 62.42298698 C-40.37262066 59.1817803 -40.36892449 55.94109452 -40.36076355 52.69987488 C-40.36950207 51.7708519 -40.3782406 50.84182893 -40.38724393 49.88465375 C-40.29079433 35.63797158 -35.07969453 23.51909918 -25.3125 13.25390625 C-18.69760712 6.80662046 -9.62851467 0 0 0 Z " fill="#30B0FA" transform="translate(165,211)"/>
<path d="M0 0 C0.33 0 0.66 0 1 0 C1.67041277 15.39466368 -1.42193446 28.07231636 -11.1875 40.25 C-16.05281414 45.51713696 -22.82484422 50.67251216 -30 52 C-30 51.34 -30 50.68 -30 50 C-29.01 50 -28.02 50 -27 50 C-27 49.34 -27 48.68 -27 48 C-25.68 48 -24.36 48 -23 48 C-22.855625 47.195625 -22.71125 46.39125 -22.5625 45.5625 C-22 43 -22 43 -21 42 C-19.00041636 41.95919217 -16.99954746 41.95745644 -15 42 C-15 41.01 -15 40.02 -15 39 C-15.66 39 -16.32 39 -17 39 C-16.7834375 37.9790625 -16.7834375 37.9790625 -16.5625 36.9375 C-15.93054091 33.63726918 -15.45686059 30.32855574 -15 27 C-14.01 27 -13.02 27 -12 27 C-11.87625 26.278125 -11.7525 25.55625 -11.625 24.8125 C-11.0095069 22.04278106 -10.11555626 19.6029646 -9 17 C-8.01 17 -7.02 17 -6 17 C-6 16.34 -6 15.68 -6 15 C-5.34 14.67 -4.68 14.34 -4 14 C-4 12.68 -4 11.36 -4 10 C-2.68 9.67 -1.36 9.34 0 9 C0 6.03 0 3.06 0 0 Z " fill="#287AF0" transform="translate(874,733)"/>
<path d="M0 0 C0.66 0 1.32 0 2 0 C2.350625 0.804375 2.70125 1.60875 3.0625 2.4375 C4.70849672 5.16986174 4.70849672 5.16986174 7.1953125 5.5546875 C9.46910278 5.78990718 11.71504402 5.94730709 14 6 C13.5875 6.9075 13.175 7.815 12.75 8.75 C11.25508678 13.70253565 13.34510351 17.79436494 15.15234375 22.42578125 C16 25 16 25 15 27 C15.66 27 16.32 27 17 27 C17.33 27.99 17.66 28.98 18 30 C18.99 29.67 19.98 29.34 21 29 C21 29.99 21 30.98 21 32 C21.66 32.66 22.32 33.32 23 34 C22.34 34.99 21.68 35.98 21 37 C19.41224451 35.60919892 17.82999061 34.21211596 16.25 32.8125 C14.92742187 31.64654297 14.92742187 31.64654297 13.578125 30.45703125 C5.92942037 23.16758396 0.2159658 13.80292261 -0.125 3.0625 C-0.08375 2.051875 -0.0425 1.04125 0 0 Z " fill="#2479F6" transform="translate(126,744)"/>
<path d="M0 0 C1.98 0 3.96 0 6 0 C6 0.66 6 1.32 6 2 C7.98 2 9.96 2 12 2 C12 2.66 12 3.32 12 4 C13.32 4 14.64 4 16 4 C16 4.66 16 5.32 16 6 C16.66 6 17.32 6 18 6 C18 6.66 18 7.32 18 8 C19.32 8 20.64 8 22 8 C22 8.66 22 9.32 22 10 C22.66 10 23.32 10 24 10 C24 10.66 24 11.32 24 12 C24.66 12 25.32 12 26 12 C26 12.66 26 13.32 26 14 C26.66 14 27.32 14 28 14 C28 14.66 28 15.32 28 16 C28.66 16 29.32 16 30 16 C30 16.66 30 17.32 30 18 C30.66 18 31.32 18 32 18 C32 18.66 32 19.32 32 20 C32.66 20 33.32 20 34 20 C34 20.66 34 21.32 34 22 C34.66 22 35.32 22 36 22 C36 22.66 36 23.32 36 24 C36.66 24 37.32 24 38 24 C38 24.66 38 25.32 38 26 C38.66 26 39.32 26 40 26 C40 26.66 40 27.32 40 28 C40.66 28 41.32 28 42 28 C42 28.66 42 29.32 42 30 C42.66 30 43.32 30 44 30 C44 30.66 44 31.32 44 32 C44.66 32 45.32 32 46 32 C46 32.66 46 33.32 46 34 C46.66 34 47.32 34 48 34 C48 34.66 48 35.32 48 36 C48.66 36 49.32 36 50 36 C50 36.66 50 37.32 50 38 C50.66 38 51.32 38 52 38 C52 38.66 52 39.32 52 40 C53.32 40 54.64 40 56 40 C56 40.66 56 41.32 56 42 C56.66 42 57.32 42 58 42 C58 42.66 58 43.32 58 44 C59.32 44 60.64 44 62 44 C62 44.66 62 45.32 62 46 C63.32 46 64.64 46 66 46 C66 46.66 66 47.32 66 48 C67.32 48 68.64 48 70 48 C70 48.66 70 49.32 70 50 C72.64 50 75.28 50 78 50 C78 50.66 78 51.32 78 52 C63.25064565 51.93473737 52.33035284 43.137532 42.16918945 33.24365234 C38.81044856 29.84356962 35.48908373 26.4062464 32.203125 22.93579102 C23.77401 14.06524743 14.97038348 6.60094698 3 3 C3 2.34 3 1.68 3 1 C2.01 0.67 1.02 0.34 0 0 Z " fill="#E0F7F9" transform="translate(323,209)"/>
<path d="M0 0 C1.65 0 3.3 0 5 0 C5 0.66 5 1.32 5 2 C6.32 2 7.64 2 9 2 C9 2.66 9 3.32 9 4 C9.66 4 10.32 4 11 4 C11 4.66 11 5.32 11 6 C12.32 6 13.64 6 15 6 C15 6.66 15 7.32 15 8 C15.66 8 16.32 8 17 8 C17 8.66 17 9.32 17 10 C17.66 10 18.32 10 19 10 C19 10.66 19 11.32 19 12 C19.66 12 20.32 12 21 12 C21 12.66 21 13.32 21 14 C21.66 14 22.32 14 23 14 C23 14.66 23 15.32 23 16 C23.66 16 24.32 16 25 16 C25 16.66 25 17.32 25 18 C25.66 18 26.32 18 27 18 C27 19.32 27 20.64 27 22 C27.66 22 28.32 22 29 22 C29 23.32 29 24.64 29 26 C29.66 26 30.32 26 31 26 C31 27.32 31 28.64 31 30 C31.66 30 32.32 30 33 30 C33 33.3 33 36.6 33 40 C33.66 40 34.32 40 35 40 C35 51.88 35 63.76 35 76 C32.55433874 72.33150811 32.7343744 70.46807636 32.69140625 66.09375 C32.66620921 64.695309 32.64081183 63.2968716 32.61523438 61.8984375 C32.58673795 59.71127605 32.56271013 57.52417858 32.54370117 55.33691406 C32.39376467 40.88369429 30.03427183 30.24956243 22 18 C21.41605469 17.08734375 21.41605469 17.08734375 20.8203125 16.15625 C17.10750048 11.06129627 11.29260094 8.18794092 6 5 C3.96094612 3.70808037 1.97559064 2.38825288 0 1 C0 0.67 0 0.34 0 0 Z " fill="#EEF8FD" transform="translate(842,263)"/>
<path d="M0 0 C4.54545455 -0.37878788 4.54545455 -0.37878788 6.875 1.5625 C9.09335736 3.38691671 9.09335736 3.38691671 12.75 2.6875 C13.8225 2.460625 14.895 2.23375 16 2 C16 2.66 16 3.32 16 4 C15.34 4 14.68 4 14 4 C14 4.66 14 5.32 14 6 C14.66 6 15.32 6 16 6 C16.69103409 15.03280274 17.11191923 23.93454225 17 33 C21.95 33 26.9 33 32 33 C32 33.33 32 33.66 32 34 C26.72 34 21.44 34 16 34 C15.9175 32.185 15.835 30.37 15.75 28.5 C15.1635837 21.59331916 13.71835496 16.57528365 8.625 11.75 C7.75875 11.1725 6.8925 10.595 6 10 C5.18208984 9.443125 5.18208984 9.443125 4.34765625 8.875 C2.90936358 7.90034521 1.45595692 6.94806497 0 6 C0.66 5.67 1.32 5.34 2 5 C2 4.01 2 3.02 2 2 C1.34 2 0.68 2 0 2 C0 1.34 0 0.68 0 0 Z " fill="#048EF1" transform="translate(828,297)"/>
<path d="M0 0 C1.98 0 3.96 0 6 0 C6 0.99 6 1.98 6 3 C6.99 3.33 7.98 3.66 9 4 C6.58936318 6.81240962 4.32245322 8.41884134 1 9.9375 C-3.76073838 12.20283276 -6.10237843 14.98035148 -8.25 19.8125 C-8.4975 20.534375 -8.745 21.25625 -9 22 C-9.33 22 -9.66 22 -10 22 C-10 16.72 -10 11.44 -10 6 C-9.34 6 -8.68 6 -8 6 C-8 5.34 -8 4.68 -8 4 C-8.66 4 -9.32 4 -10 4 C-10 3.34 -10 2.68 -10 2 C-6 3 -6 3 -2 4 C-1.34 2.68 -0.68 1.36 0 0 Z " fill="#068DEC" transform="translate(166,297)"/>
<path d="M0 0 C3.63 0 7.26 0 11 0 C11 0.33 11 0.66 11 1 C9.97261719 1.21914062 8.94523437 1.43828125 7.88671875 1.6640625 C-6.60414167 4.91016956 -17.85111517 10.05100492 -26.78515625 22.484375 C-31.01631207 29.1793734 -33.73733827 36.1714973 -35 44 C-35.33 44 -35.66 44 -36 44 C-36 40.7 -36 37.4 -36 34 C-35.34 34 -34.68 34 -34 34 C-34 32.02 -34 30.04 -34 28 C-33.34 28 -32.68 28 -32 28 C-32 26.68 -32 25.36 -32 24 C-31.34 24 -30.68 24 -30 24 C-30 22.68 -30 21.36 -30 20 C-29.34 20 -28.68 20 -28 20 C-28 19.34 -28 18.68 -28 18 C-27.34 18 -26.68 18 -26 18 C-26 17.34 -26 16.68 -26 16 C-25.34 16 -24.68 16 -24 16 C-24 15.34 -24 14.68 -24 14 C-23.34 14 -22.68 14 -22 14 C-22 13.34 -22 12.68 -22 12 C-21.34 12 -20.68 12 -20 12 C-20 11.34 -20 10.68 -20 10 C-19.34 10 -18.68 10 -18 10 C-18 9.34 -18 8.68 -18 8 C-16.68 8 -15.36 8 -14 8 C-14 7.34 -14 6.68 -14 6 C-12.68 6 -11.36 6 -10 6 C-10 5.34 -10 4.68 -10 4 C-8.68 4 -7.36 4 -6 4 C-6 3.34 -6 2.68 -6 2 C-4.02 2 -2.04 2 0 2 C0 1.34 0 0.68 0 0 Z " fill="#E2F7FB" transform="translate(161,209)"/>
<path d="M0 0 C4.38855677 1.72407587 6.91486937 4.82973873 9 9 C9.06996014 10.70702735 9.08440154 12.41668003 9.0625 14.125 C9.05347656 15.03507812 9.04445313 15.94515625 9.03515625 16.8828125 C9.02355469 17.58148438 9.01195312 18.28015625 9 19 C8.67 18.34 8.34 17.68 8 17 C6.35 17.66 4.7 18.32 3 19 C3 18.34 3 17.68 3 17 C1.35 17 -0.3 17 -2 17 C-1.69230293 15.18667846 -1.37870936 13.37435655 -1.0625 11.5625 C-0.88847656 10.55316406 -0.71445312 9.54382813 -0.53515625 8.50390625 C0 6 0 6 1 5 C0.34 4.34 -0.32 3.68 -1 3 C-0.67 2.01 -0.34 1.02 0 0 Z " fill="#EDFAFD" transform="translate(834,307)"/>
<path d="M0 0 C2.63965949 2.49301174 4.8864836 4.82594152 6.875 7.875 C14.51552426 19.11106508 25.23227614 24.27059612 38 28 C38 28.33 38 28.66 38 29 C35.03 29 32.06 29 29 29 C29 28.34 29 27.68 29 27 C27.02 27 25.04 27 23 27 C23 26.34 23 25.68 23 25 C21.68 25 20.36 25 19 25 C19 24.34 19 23.68 19 23 C18.34 23 17.68 23 17 23 C17 22.34 17 21.68 17 21 C15.68 21 14.36 21 13 21 C13 20.34 13 19.68 13 19 C12.34 19 11.68 19 11 19 C11 18.34 11 17.68 11 17 C10.34 17 9.68 17 9 17 C9 16.34 9 15.68 9 15 C8.34 15 7.68 15 7 15 C7 14.34 7 13.68 7 13 C6.34 13 5.68 13 5 13 C5 11.68 5 10.36 5 9 C4.34 9 3.68 9 3 9 C3 8.34 3 7.68 3 7 C2.34 7 1.68 7 1 7 C1 5.68 1 4.36 1 3 C0.34 3 -0.32 3 -1 3 C-0.67 2.01 -0.34 1.02 0 0 Z " fill="#DCF1F9" transform="translate(128,760)"/>
<path d="M0 0 C7.8354109 4.58516638 13.79482191 10.48166339 20 17 C17 19 17 19 14 19 C14 18.34 14 17.68 14 17 C10.04 17.495 10.04 17.495 6 18 C6 14.7 6 11.4 6 8 C5.01 8 4.02 8 3 8 C0 2.25 0 2.25 0 0 Z " fill="#11AAF1" transform="translate(338,217)"/>
<path d="M0 0 C1.41750563 0.11509661 2.83401169 0.24253658 4.25 0.375 C5.03890625 0.44460937 5.8278125 0.51421875 6.640625 0.5859375 C9.12289562 1.02156777 10.86644748 1.66652967 13 3 C13.75 5.125 13.75 5.125 14 7 C10.31949259 8.17776237 6.83837399 8.06978862 3 8 C2.01 8 1.02 8 0 8 C0 7.34 0 6.68 0 6 C-2.97 6 -5.94 6 -9 6 C-9 5.34 -9 4.68 -9 4 C-7.35 4 -5.7 4 -4 4 C-4 3.34 -4 2.68 -4 2 C-2.68 2 -1.36 2 0 2 C0 1.34 0 0.68 0 0 Z " fill="#1AAEF3" transform="translate(321,211)"/>
<path d="M0 0 C2.125 0.9375 2.125 0.9375 4 2 C4 2.66 4 3.32 4 4 C9.28 4 14.56 4 20 4 C20 4.33 20 4.66 20 5 C14.72 5 9.44 5 4 5 C4 6.98 4 8.96 4 11 C3.01 11.495 3.01 11.495 2 12 C2 10.35 2 8.7 2 7 C1.44570312 7.15597656 0.89140625 7.31195313 0.3203125 7.47265625 C-0.40414062 7.66730469 -1.12859375 7.86195313 -1.875 8.0625 C-2.59429687 8.25972656 -3.31359375 8.45695312 -4.0546875 8.66015625 C-6 9 -6 9 -8 8 C-8.33 9.65 -8.66 11.3 -9 13 C-9.66 13 -10.32 13 -11 13 C-9.73189061 7.08215617 -6.7151965 4.41406916 -2 1 C-1.34 0.67 -0.68 0.34 0 0 Z " fill="#EBFCFD" transform="translate(168,305)"/>
<path d="M0 0 C0 0.66 0 1.32 0 2 C0.99 2 1.98 2 3 2 C3 2.66 3 3.32 3 4 C4.32 4 5.64 4 7 4 C7 4.66 7 5.32 7 6 C5.89591797 5.94779297 5.89591797 5.94779297 4.76953125 5.89453125 C-2.62479476 5.57036226 -2.62479476 5.57036226 -9 9 C-9 8.01 -9 7.02 -9 6 C-10.65 6 -12.3 6 -14 6 C-14 6.66 -14 7.32 -14 8 C-15.32 7.67 -16.64 7.34 -18 7 C-16.06374902 6.01836578 -14.12595461 5.03977546 -12.1875 4.0625 C-11.10855469 3.51722656 -10.02960938 2.97195312 -8.91796875 2.41015625 C-5.71932367 0.86435856 -3.56642318 0 0 0 Z " fill="#25B0EA" transform="translate(165,211)"/>
<path d="M0 0 C0.845625 0.144375 1.69125 0.28875 2.5625 0.4375 C1.9025 2.7475 1.2425 5.0575 0.5625 7.4375 C-2.0775 8.0975 -4.7175 8.7575 -7.4375 9.4375 C-7.4375 11.0875 -7.4375 12.7375 -7.4375 14.4375 C-9.0875 14.1075 -10.7375 13.7775 -12.4375 13.4375 C-10.99666325 6.87368812 -6.93748061 0.88295208 0 0 Z " fill="#19ADF1" transform="translate(148.4375,218.5625)"/>
<path d="M0 0 C0.99 0.495 0.99 0.495 2 1 C2 1.66 2 2.32 2 3 C3.1446875 3.12375 3.1446875 3.12375 4.3125 3.25 C7.52373261 4.14615794 8.29374499 5.21611025 10 8 C9.34 8 8.68 8 8 8 C8 8.66 8 9.32 8 10 C7.34 10 6.68 10 6 10 C6 10.66 6 11.32 6 12 C5.34 11.67 4.68 11.34 4 11 C3.67 11.33 3.34 11.66 3 12 C2.01 12 1.02 12 0 12 C0 8.04 0 4.08 0 0 Z " fill="#0BA8F4" transform="translate(359,238)"/>
<path d="M0 0 C2.55830448 1.22798615 4.98063524 2.57055141 7.4375 4 C10.21334903 5.60329211 12.98023812 6.90190477 16 8 C16 8.33 16 8.66 16 9 C9.565 9.495 9.565 9.495 3 10 C2.67 8.68 2.34 7.36 2 6 C1.34 5.67 0.68 5.34 0 5 C0 3.35 0 1.7 0 0 Z " fill="#17A2EE" transform="translate(375,251)"/>
<path d="M0 0 C2.56695101 7.70085302 2.09213561 15.98420168 2 24 C6.95 24 11.9 24 17 24 C17 24.33 17 24.66 17 25 C11.72 25 6.44 25 1 25 C0.9175 23.185 0.835 21.37 0.75 19.5 C0.2831882 13.68544719 -1.0877275 10.00546836 -4 5 C-4.33 4.01 -4.66 3.02 -5 2 C-3.35 1.34 -1.7 0.68 0 0 Z " fill="#0781E3" transform="translate(843,306)"/>
<path d="M0 0 C0.66 0.33 1.32 0.66 2 1 C-3.14643788 7.81555287 -10.30580698 14.4081055 -19 16 C-19 15.34 -19 14.68 -19 14 C-18.01 14 -17.02 14 -16 14 C-16 13.34 -16 12.68 -16 12 C-14.68 12 -13.36 12 -12 12 C-11.855625 11.195625 -11.71125 10.39125 -11.5625 9.5625 C-11 7 -11 7 -10 6 C-8.00041636 5.95919217 -5.99954746 5.95745644 -4 6 C-3.566875 5.071875 -3.566875 5.071875 -3.125 4.125 C-2 2 -2 2 0 0 Z " fill="#3376DC" transform="translate(863,769)"/>
<path d="M0 0 C4.8818117 3.57999524 7.14002355 6.20124989 9 12 C8.67 12.66 8.34 13.32 8 14 C7.34 13.67 6.68 13.34 6 13 C6 14.32 6 15.64 6 17 C4.68 17 3.36 17 2 17 C2 15.02 2 13.04 2 11 C2.66 11 3.32 11 4 11 C4.33498301 8.66834966 4.33498301 8.66834966 4 6 C2.0624994 3.81222534 2.0624994 3.81222534 0 2 C0 1.34 0 0.68 0 0 Z " fill="#0F95E5" transform="translate(859,276)"/>
<path d="M0 0 C5.61946506 3.4524818 10.0679294 6.67267854 14 12 C12.68 12.33 11.36 12.66 10 13 C9.67 12.34 9.34 11.68 9 11 C8.01 10.67 7.02 10.34 6 10 C6 9.34 6 8.68 6 8 C5.01 8 4.02 8 3 8 C0 2.25 0 2.25 0 0 Z " fill="#1BACF3" transform="translate(338,217)"/>
<path d="M0 0 C6.27 0 12.54 0 19 0 C19 0.66 19 1.32 19 2 C18.01 2 17.02 2 16 2 C16 2.99 16 3.98 16 5 C13.69 5.33 11.38 5.66 9 6 C9.66 5.01 10.32 4.02 11 3 C7.37 2.67 3.74 2.34 0 2 C0 1.34 0 0.68 0 0 Z " fill="#2D75ED" transform="translate(828,781)"/>
<path d="M0 0 C0.99 0 1.98 0 3 0 C2.979375 1.2375 2.95875 2.475 2.9375 3.75 C2.93233319 6.6640825 3.06984442 9.20953327 4 12 C4.66 10.68 5.32 9.36 6 8 C6.66 8 7.32 8 8 8 C8.1875 10.875 8.1875 10.875 8 14 C7.01 14.66 6.02 15.32 5 16 C3.68 15.67 2.36 15.34 1 15 C0.67 10.05 0.34 5.1 0 0 Z " fill="#078EE8" transform="translate(866,297)"/>
<path d="M0 0 C3.71599191 -0.20086443 4.77208445 -0.1519437 8 2 C8 2.66 8 3.32 8 4 C6.68 4 5.36 4 4 4 C4 4.99 4 5.98 4 7 C6.64 6.67 9.28 6.34 12 6 C12 6.66 12 7.32 12 8 C10 9.625 10 9.625 8 11 C5.36 9.35 2.72 7.7 0 6 C0.66 5.67 1.32 5.34 2 5 C2 4.01 2 3.02 2 2 C1.34 2 0.68 2 0 2 C0 1.34 0 0.68 0 0 Z " fill="#098BE7" transform="translate(828,297)"/>
<path d="M0 0 C3.80802445 1.4960096 5.69424557 3.66063151 8 7 C8.75 9.3125 8.75 9.3125 9 11 C8.01 11 7.02 11 6 11 C6 9.35 6 7.7 6 6 C5.34 6 4.68 6 4 6 C4 8.31 4 10.62 4 13 C3.34 12.67 2.68 12.34 2 12 C2.33 9.69 2.66 7.38 3 5 C1.68 4.34 0.36 3.68 -1 3 C-0.67 2.01 -0.34 1.02 0 0 Z " fill="#DCF4F7" transform="translate(834,307)"/>
<path d="M0 0 C0 3 0 3 -1 5 C-0.01 5 0.98 5 2 5 C2 5.66 2 6.32 2 7 C2.66 7 3.32 7 4 7 C4 8.32 4 9.64 4 11 C3.34 11 2.68 11 2 11 C2 10.01 2 9.02 2 8 C0.35 8 -1.3 8 -3 8 C-3.33 8.99 -3.66 9.98 -4 11 C-4.66 11 -5.32 11 -6 11 C-6 11.99 -6 12.98 -6 14 C-6.66 14 -7.32 14 -8 14 C-6.6744419 10.37723685 -5.05653045 7.36494652 -2.875 4.1875 C-2.33617187 3.39730469 -1.79734375 2.60710937 -1.2421875 1.79296875 C-0.83226562 1.20128906 -0.42234375 0.60960937 0 0 Z " fill="#24A7E9" transform="translate(137,227)"/>
<path d="M0 0 C0.33 0 0.66 0 1 0 C1 3.63 1 7.26 1 11 C0.34 11 -0.32 11 -1 11 C-1 12.98 -1 14.96 -1 17 C-1.66 17 -2.32 17 -3 17 C-3 18.32 -3 19.64 -3 21 C-3.66 21 -4.32 21 -5 21 C-4.47547343 16.06945022 -3.33771408 11.76554994 -1.69921875 7.08984375 C-0.91760387 4.75373225 -0.39213644 2.43124594 0 0 Z " fill="#CCE4F9" transform="translate(874,746)"/>
<path d="M0 0 C0.33 0.66 0.66 1.32 1 2 C2.32 2 3.64 2 5 2 C4.30058404 5.14737182 3.23921302 8.02588876 2 11 C1.34 10.67 0.68 10.34 0 10 C-1.29411765 2.58823529 -1.29411765 2.58823529 0 0 Z " fill="#0CACF2" transform="translate(134,233)"/>
<path d="M0 0 C1.32 0 2.64 0 4 0 C4 3.3 4 6.6 4 10 C3.01 10 2.02 10 1 10 C-0.60725635 6.78548731 -0.05748185 3.56387464 0 0 Z " fill="#FDFBF1" transform="translate(166,312)"/>
<path d="M0 0 C-1.94770884 1.29847256 -3.92646812 2.55193845 -5.9375 3.75 C-9.26055104 6.19142525 -10.90387698 8.48150779 -13 12 C-13.66 12.99 -14.32 13.98 -15 15 C-15.39253254 10.55129785 -14.15305957 7.85756507 -12 4 C-11.01 4 -10.02 4 -9 4 C-9 3.34 -9 2.68 -9 2 C-5.86501708 0.14223235 -3.62528568 -0.20140476 0 0 Z " fill="#1C88DB" transform="translate(171,304)"/>
<path d="M0 0 C0.66 0.33 1.32 0.66 2 1 C0.875 3 0.875 3 -1 5 C-4.1875 5.25 -4.1875 5.25 -7 5 C-7 5.66 -7 6.32 -7 7 C-9.97 7 -12.94 7 -16 7 C-13.1188622 5.07924147 -10.68495267 4.07475706 -7.4375 2.9375 C-3.65253559 1.62433842 -3.65253559 1.62433842 0 0 Z " fill="#D2E8F6" transform="translate(850,782)"/>
<path d="M0 0 C0.66 0 1.32 0 2 0 C2.66 0.66 3.32 1.32 4 2 C4.66 2.33 5.32 2.66 6 3 C6.12375 3.7425 6.2475 4.485 6.375 5.25 C7.14599835 8.64239274 8.71898641 10.42466207 11 13 C10.67 13.66 10.34 14.32 10 15 C0 3.95890411 0 3.95890411 0 0 Z " fill="#3679E4" transform="translate(130,760)"/>
<path d="M0 0 C0.66 0 1.32 0 2 0 C2.99 1.98 3.98 3.96 5 6 C4.34 6 3.68 6 3 6 C3.33 8.97 3.66 11.94 4 15 C2 14 2 14 0.875 10.875 C0.02244801 7.09941262 -0.15729024 3.85361088 0 0 Z " fill="#347DE4" transform="translate(126,744)"/>
<path d="M0 0 C0.66 0.33 1.32 0.66 2 1 C0.515 2.485 0.515 2.485 -1 4 C0.98 4 2.96 4 5 4 C2.377486 5.74834267 1.00515522 6.51529754 -2 7 C-2.66 6.67 -3.32 6.34 -4 6 C-4.33 7.65 -4.66 9.3 -5 11 C-5.66 11 -6.32 11 -7 11 C-5.72278474 6.00724943 -3.82669043 3.42388092 0 0 Z " fill="#D2F1FA" transform="translate(164,307)"/>
<path d="M0 0 C0.38885039 1.78871178 0.76069196 3.58112874 1.125 5.375 C1.33382812 6.37273438 1.54265625 7.37046875 1.7578125 8.3984375 C1.83773437 9.25695312 1.91765625 10.11546875 2 11 C1.34 11.66 0.68 12.32 0 13 C0 11.68 0 10.36 0 9 C-0.99 9 -1.98 9 -3 9 C-3 6.36 -3 3.72 -3 1 C-1 0 -1 0 0 0 Z " fill="#2C7AEC" transform="translate(865,756)"/>
<path d="M0 0 C3.63 0 7.26 0 11 0 C11.33 0.66 11.66 1.32 12 2 C9 4 9 4 6.5625 3.8125 C4 3 4 3 0 0 Z " fill="#3279E3" transform="translate(148,781)"/>
<path d="M0 0 C0.69738281 0.05220703 1.39476562 0.10441406 2.11328125 0.15820312 C3.82596203 0.28724072 5.53805066 0.42409614 7.25 0.5625 C7.25 0.8925 7.25 1.2225 7.25 1.5625 C6.39277344 1.62308594 5.53554687 1.68367188 4.65234375 1.74609375 C-1.18604873 2.17393536 -6.97057272 2.621663 -12.75 3.5625 C-12.42 2.5725 -12.09 1.5825 -11.75 0.5625 C-8.0624121 -1.10786779 -3.92769868 -0.32297711 0 0 Z " fill="#0189E7" transform="translate(145.75,329.4375)"/>
<path d="M0 0 C4.31392226 0.4793247 6.16569547 1.7457985 9 5 C5.7 4.67 2.4 4.34 -1 4 C-0.67 2.68 -0.34 1.36 0 0 Z " fill="#1499E3" transform="translate(845,267)"/>
<path d="M0 0 C1.65 1.65 3.3 3.3 5 5 C4.34 5 3.68 5 3 5 C3 5.66 3 6.32 3 7 C2.34 7 1.68 7 1 7 C1 7.66 1 8.32 1 9 C-1 8 -1 8 -2 5 C-1.0625 2.3125 -1.0625 2.3125 0 0 Z " fill="#1AA3EE" transform="translate(364,241)"/>
<path d="M0 0 C1.32 0 2.64 0 4 0 C3.67 2.64 3.34 5.28 3 8 C2.01 8.33 1.02 8.66 0 9 C0 6.03 0 3.06 0 0 Z " fill="#FDFAF2" transform="translate(830,313)"/>
<path d="M0 0 C2.64 0 5.28 0 8 0 C6.75 1.5625 6.75 1.5625 5 3 C2.8125 2.6875 2.8125 2.6875 1 2 C1 2.66 1 3.32 1 4 C-0.98 4 -2.96 4 -5 4 C-5 3.34 -5 2.68 -5 2 C-3.35 2 -1.7 2 0 2 C0 1.34 0 0.68 0 0 Z " fill="#05A7FB" transform="translate(387,260)"/>
<path d="M0 0 C1.14926266 0.95421808 2.29430541 1.91352045 3.4375 2.875 C4.07558594 3.40867187 4.71367187 3.94234375 5.37109375 4.4921875 C7 6 7 6 8 8 C5.03 7.505 5.03 7.505 2 7 C2 6.34 2 5.68 2 5 C1.34 5 0.68 5 0 5 C0 3.35 0 1.7 0 0 Z " fill="#CEEDFB" transform="translate(135,770)"/>
<path d="M0 0 C0.33 0 0.66 0 1 0 C1 4.29 1 8.58 1 13 C-1 13 -3 13 -5 13 C-4.34 11.68 -3.68 10.36 -3 9 C-2.01 9 -1.02 9 0 9 C0 6.03 0 3.06 0 0 Z " fill="#2D7EF5" transform="translate(874,733)"/>
<path d="M0 0 C0.66 0 1.32 0 2 0 C2 2.97 2 5.94 2 9 C0.68 9 -0.64 9 -2 9 C-1.41196203 5.97580475 -0.77321882 2.98241547 0 0 Z " fill="#FDFBF4" transform="translate(160,313)"/>
<path d="M0 0 C1.65 0 3.3 0 5 0 C5 0.66 5 1.32 5 2 C6.32 2 7.64 2 9 2 C9 2.66 9 3.32 9 4 C9.66 4 10.32 4 11 4 C11 4.66 11 5.32 11 6 C6.48986609 5.46939601 3.61621781 3.69113883 0 1 C0 0.67 0 0.34 0 0 Z " fill="#E9F7F9" transform="translate(842,263)"/>
<path d="M0 0 C0.33 0 0.66 0 1 0 C1.08121924 1.60332791 1.13929134 3.20784026 1.1875 4.8125 C1.23970703 6.15248047 1.23970703 6.15248047 1.29296875 7.51953125 C0.95081002 10.41647515 0.24606427 11.22555028 -2 13 C-2.19294408 8.17639811 -1.75747614 4.50353262 0 0 Z " fill="#2AA6E6" transform="translate(128,242)"/>
<path d="M0 0 C0.33 0.99 0.66 1.98 1 3 C1.66 3.66 2.32 4.32 3 5 C2.01 6.485 2.01 6.485 1 8 C-0.7074998 6.71937515 -2.37373596 5.38232443 -4 4 C-4 3.34 -4 2.68 -4 2 C-2.68 1.34 -1.36 0.68 0 0 Z " fill="#2F76E5" transform="translate(146,773)"/>
<path d="M0 0 C0.66 0 1.32 0 2 0 C2 1.65 2 3.3 2 5 C2.66 5 3.32 5 4 5 C4 6.32 4 7.64 4 9 C2.68 9 1.36 9 0 9 C0 6.03 0 3.06 0 0 Z " fill="#FDFBEF" transform="translate(838,313)"/>
<path d="M0 0 C0.66 0 1.32 0 2 0 C2 1.32 2 2.64 2 4 C1.34 4 0.68 4 0 4 C-0.0825 4.598125 -0.165 5.19625 -0.25 5.8125 C-1.20455872 8.5966296 -2.57132271 9.43311142 -5 11 C-4.01 8.03 -3.02 5.06 -2 2 C-1.34 2 -0.68 2 0 2 C0 1.34 0 0.68 0 0 Z " fill="#13A4EE" transform="translate(131,246)"/>
<path d="M0 0 C3.6875 0.125 3.6875 0.125 7 1 C7.33 1.66 7.66 2.32 8 3 C2.06 3.495 2.06 3.495 -4 4 C-2.68 2.68 -1.36 1.36 0 0 Z " fill="#1AA4E1" transform="translate(383,257)"/>
<path d="M0 0 C0 0.66 0 1.32 0 2 C-2 3.625 -2 3.625 -4 5 C-5.98 4.01 -7.96 3.02 -10 2 C-10 1.67 -10 1.34 -10 1 C-6.56484998 0.37542727 -3.50935186 0 0 0 Z " fill="#158CDC" transform="translate(840,303)"/>
<path d="M0 0 C1.32 0.66 2.64 1.32 4 2 C3 5 3 5 0 7 C-2.1875 6.625 -2.1875 6.625 -4 6 C-3.01 5.67 -2.02 5.34 -1 5 C-0.67 3.35 -0.34 1.7 0 0 Z " fill="#1495E2" transform="translate(854,272)"/>
<path d="M0 0 C1.32 0 2.64 0 4 0 C3.67 1.32 3.34 2.64 3 4 C0.69 4.33 -1.62 4.66 -4 5 C-2.25 2.5 -2.25 2.5 0 0 Z " fill="#FAFAF0" transform="translate(166,307)"/>
<path d="M0 0 C1.47668858 0.0133035 2.95331108 0.03716415 4.4296875 0.0703125 C5.18378906 0.07933594 5.93789062 0.08835937 6.71484375 0.09765625 C8.57826004 0.1212438 10.44151343 0.15711531 12.3046875 0.1953125 C12.3046875 0.5253125 12.3046875 0.8553125 12.3046875 1.1953125 C10.05481951 1.36375181 7.80478733 1.52999904 5.5546875 1.6953125 C4.30171875 1.788125 3.04875 1.8809375 1.7578125 1.9765625 C-0.72266021 2.13369652 -3.20986767 2.1953125 -5.6953125 2.1953125 C-3.6953125 0.1953125 -3.6953125 0.1953125 0 0 Z " fill="#25B3FB" transform="translate(143.6953125,330.8046875)"/>
<path d="M0 0 C0.33 0.66 0.66 1.32 1 2 C2.32 2 3.64 2 5 2 C5 2.66 5 3.32 5 4 C7.64 4 10.28 4 13 4 C13 4.66 13 5.32 13 6 C11.39504433 5.88557539 9.79101881 5.75805306 8.1875 5.625 C7.29417969 5.55539062 6.40085937 5.48578125 5.48046875 5.4140625 C3 5 3 5 0 3 C0 2.01 0 1.02 0 0 Z " fill="#EAF6F3" transform="translate(388,255)"/>
<path d="M0 0 C2.31 0 4.62 0 7 0 C7 1.32 7 2.64 7 4 C5.68 4 4.36 4 3 4 C3 3.34 3 2.68 3 2 C2.01 2 1.02 2 0 2 C0 1.34 0 0.68 0 0 Z " fill="#0AB4F3" transform="translate(165,211)"/>
<path d="M0 0 C0 0.66 0 1.32 0 2 C-1.32 2 -2.64 2 -4 2 C-4 2.66 -4 3.32 -4 4 C-4.66 4 -5.32 4 -6 4 C-6 4.66 -6 5.32 -6 6 C-6.99 5.67 -7.98 5.34 -9 5 C-4.5 0 -4.5 0 0 0 Z " fill="#E5F5F8" transform="translate(859,779)"/>
<path d="M0 0 C3.465 1.98 3.465 1.98 7 4 C6.01 4.99 5.02 5.98 4 7 C1 5 1 5 0.3125 2.375 C0.209375 1.59125 0.10625 0.8075 0 0 Z " fill="#26ACE9" transform="translate(338,217)"/>
<path d="M0 0 C1.65 0 3.3 0 5 0 C5 0.66 5 1.32 5 2 C6.65 2.33 8.3 2.66 10 3 C5.99799622 4.60080151 2.95443764 3.29279692 -1 2 C-0.67 1.34 -0.34 0.68 0 0 Z " fill="#437EE4" transform="translate(160,785)"/>
<path d="M0 0 C1.32 0.33 2.64 0.66 4 1 C4 1.99 4 2.98 4 4 C1.69 4.33 -0.62 4.66 -3 5 C-2.01 3.35 -1.02 1.7 0 0 Z " fill="#2A78F0" transform="translate(159,781)"/>
<path d="M0 0 C0.33 0 0.66 0 1 0 C1.36923077 6.52307692 1.36923077 6.52307692 -0.5 8.9375 C-0.995 9.288125 -1.49 9.63875 -2 10 C-2.17942163 6.05272412 -2.09350689 3.4019487 0 0 Z " fill="#17A3F2" transform="translate(137,240)"/>
<path d="M0 0 C0.66 0 1.32 0 2 0 C2.33 1.98 2.66 3.96 3 6 C1.35 5.67 -0.3 5.34 -2 5 C-1.34 3.35 -0.68 1.7 0 0 Z " fill="#0DAFFA" transform="translate(138,227)"/>
<path d="M0 0 C0.33 0.66 0.66 1.32 1 2 C1.66 2 2.32 2 3 2 C3.33 3.98 3.66 5.96 4 8 C-0.875 3.25 -0.875 3.25 -2 1 C-1.34 0.67 -0.68 0.34 0 0 Z " fill="#CDEDF9" transform="translate(862,275)"/>
<path d="M0 0 C0.99 0.33 1.98 0.66 3 1 C3 2.65 3 4.3 3 6 C2.01 6 1.02 6 0 6 C0 4.02 0 2.04 0 0 Z " fill="#0A8CEB" transform="translate(861,306)"/>
<path d="M0 0 C2.31 0.33 4.62 0.66 7 1 C6.67 1.66 6.34 2.32 6 3 C4.02 3 2.04 3 0 3 C0 2.01 0 1.02 0 0 Z " fill="#008FF8" transform="translate(168,299)"/>
<path d="M0 0 C2.64 0.33 5.28 0.66 8 1 C7.67 1.66 7.34 2.32 7 3 C4.69 3 2.38 3 0 3 C0 2.01 0 1.02 0 0 Z " fill="#0AB3FC" transform="translate(161,216)"/>
</svg>
