<?xml version="1.0" encoding="UTF-8"?>
<svg id="Livello_1" data-name="Livello 1" xmlns="http://www.w3.org/2000/svg" viewBox="0 0 543.29 419.2">
  <defs>
    <style>
      .cls-1 {
        fill: #bc0000;
      }
    </style>
  </defs>
  <path class="cls-1" d="M31.03,0h111.89c24.08,5.56,32.08,34.94,58.14,37.47l310.01-.02c16.75,1.76,30.92,16.17,32.23,32.95v316.56c-1.95,17.26-15.49,31.02-32.95,32.24H32.26c-16.96-2.06-30.26-15.22-32.23-32.24C0,288.71-.17,190.33.81,92.19c.2-19.76-1.72-43.15-.06-62.34C2.06,14.82,16.63,2.4,31.03,0ZM520.08,86c1.51-9.35-3.69-17.27-13.36-18.14H36.6c-9.64.86-14.88,8.74-13.36,18.14l6.12-1.48h485.32s5.4,1.48,5.4,1.48Z"/>
</svg>